G04 #@! TF.GenerationSoftware,KiCad,Pcbnew,9.0.3*
G04 #@! TF.CreationDate,2026-02-18T20:02:50+00:00*
G04 #@! TF.ProjectId,nevb_mtr1_i56_1,6e657662-5f6d-4747-9231-5f6935365f31,01*
G04 #@! TF.SameCoordinates,Original*
G04 #@! TF.FileFunction,Paste,Bot*
G04 #@! TF.FilePolarity,Positive*
%FSLAX46Y46*%
G04 Gerber Fmt 4.6, Leading zero omitted, Abs format (unit mm)*
G04 Created by KiCad (PCBNEW 9.0.3) date 2026-02-18 20:02:50*
%MOMM*%
%LPD*%
G01*
G04 APERTURE LIST*
G04 Aperture macros list*
%AMRoundRect*
0 Rectangle with rounded corners*
0 $1 Rounding radius*
0 $2 $3 $4 $5 $6 $7 $8 $9 X,Y pos of 4 corners*
0 Add a 4 corners polygon primitive as box body*
4,1,4,$2,$3,$4,$5,$6,$7,$8,$9,$2,$3,0*
0 Add four circle primitives for the rounded corners*
1,1,$1+$1,$2,$3*
1,1,$1+$1,$4,$5*
1,1,$1+$1,$6,$7*
1,1,$1+$1,$8,$9*
0 Add four rect primitives between the rounded corners*
20,1,$1+$1,$2,$3,$4,$5,0*
20,1,$1+$1,$4,$5,$6,$7,0*
20,1,$1+$1,$6,$7,$8,$9,0*
20,1,$1+$1,$8,$9,$2,$3,0*%
G04 Aperture macros list end*
%ADD10C,0.300000*%
%ADD11RoundRect,0.249999X0.737501X2.450001X-0.737501X2.450001X-0.737501X-2.450001X0.737501X-2.450001X0*%
%ADD12R,0.600000X1.050000*%
%ADD13R,0.900000X0.600000*%
%ADD14R,0.600000X0.900000*%
%ADD15RoundRect,0.249999X-0.737501X-2.450001X0.737501X-2.450001X0.737501X2.450001X-0.737501X2.450001X0*%
%ADD16C,9.500000*%
%ADD17R,1.050000X0.600000*%
G04 APERTURE END LIST*
D10*
X28233082Y-170229400D02*
X28447368Y-170300828D01*
X28447368Y-170300828D02*
X28804510Y-170300828D01*
X28804510Y-170300828D02*
X28947368Y-170229400D01*
X28947368Y-170229400D02*
X29018796Y-170157971D01*
X29018796Y-170157971D02*
X29090225Y-170015114D01*
X29090225Y-170015114D02*
X29090225Y-169872257D01*
X29090225Y-169872257D02*
X29018796Y-169729400D01*
X29018796Y-169729400D02*
X28947368Y-169657971D01*
X28947368Y-169657971D02*
X28804510Y-169586542D01*
X28804510Y-169586542D02*
X28518796Y-169515114D01*
X28518796Y-169515114D02*
X28375939Y-169443685D01*
X28375939Y-169443685D02*
X28304510Y-169372257D01*
X28304510Y-169372257D02*
X28233082Y-169229400D01*
X28233082Y-169229400D02*
X28233082Y-169086542D01*
X28233082Y-169086542D02*
X28304510Y-168943685D01*
X28304510Y-168943685D02*
X28375939Y-168872257D01*
X28375939Y-168872257D02*
X28518796Y-168800828D01*
X28518796Y-168800828D02*
X28875939Y-168800828D01*
X28875939Y-168800828D02*
X29090225Y-168872257D01*
X29947367Y-170300828D02*
X29804510Y-170229400D01*
X29804510Y-170229400D02*
X29733081Y-170157971D01*
X29733081Y-170157971D02*
X29661653Y-170015114D01*
X29661653Y-170015114D02*
X29661653Y-169586542D01*
X29661653Y-169586542D02*
X29733081Y-169443685D01*
X29733081Y-169443685D02*
X29804510Y-169372257D01*
X29804510Y-169372257D02*
X29947367Y-169300828D01*
X29947367Y-169300828D02*
X30161653Y-169300828D01*
X30161653Y-169300828D02*
X30304510Y-169372257D01*
X30304510Y-169372257D02*
X30375939Y-169443685D01*
X30375939Y-169443685D02*
X30447367Y-169586542D01*
X30447367Y-169586542D02*
X30447367Y-170015114D01*
X30447367Y-170015114D02*
X30375939Y-170157971D01*
X30375939Y-170157971D02*
X30304510Y-170229400D01*
X30304510Y-170229400D02*
X30161653Y-170300828D01*
X30161653Y-170300828D02*
X29947367Y-170300828D01*
X31304510Y-170300828D02*
X31161653Y-170229400D01*
X31161653Y-170229400D02*
X31090224Y-170086542D01*
X31090224Y-170086542D02*
X31090224Y-168800828D01*
X32518796Y-170300828D02*
X32518796Y-168800828D01*
X32518796Y-170229400D02*
X32375938Y-170300828D01*
X32375938Y-170300828D02*
X32090224Y-170300828D01*
X32090224Y-170300828D02*
X31947367Y-170229400D01*
X31947367Y-170229400D02*
X31875938Y-170157971D01*
X31875938Y-170157971D02*
X31804510Y-170015114D01*
X31804510Y-170015114D02*
X31804510Y-169586542D01*
X31804510Y-169586542D02*
X31875938Y-169443685D01*
X31875938Y-169443685D02*
X31947367Y-169372257D01*
X31947367Y-169372257D02*
X32090224Y-169300828D01*
X32090224Y-169300828D02*
X32375938Y-169300828D01*
X32375938Y-169300828D02*
X32518796Y-169372257D01*
X33804510Y-170229400D02*
X33661653Y-170300828D01*
X33661653Y-170300828D02*
X33375939Y-170300828D01*
X33375939Y-170300828D02*
X33233081Y-170229400D01*
X33233081Y-170229400D02*
X33161653Y-170086542D01*
X33161653Y-170086542D02*
X33161653Y-169515114D01*
X33161653Y-169515114D02*
X33233081Y-169372257D01*
X33233081Y-169372257D02*
X33375939Y-169300828D01*
X33375939Y-169300828D02*
X33661653Y-169300828D01*
X33661653Y-169300828D02*
X33804510Y-169372257D01*
X33804510Y-169372257D02*
X33875939Y-169515114D01*
X33875939Y-169515114D02*
X33875939Y-169657971D01*
X33875939Y-169657971D02*
X33161653Y-169800828D01*
X34518795Y-170300828D02*
X34518795Y-169300828D01*
X34518795Y-169586542D02*
X34590224Y-169443685D01*
X34590224Y-169443685D02*
X34661653Y-169372257D01*
X34661653Y-169372257D02*
X34804510Y-169300828D01*
X34804510Y-169300828D02*
X34947367Y-169300828D01*
X36590223Y-170300828D02*
X36590223Y-168800828D01*
X36590223Y-168800828D02*
X37161652Y-168800828D01*
X37161652Y-168800828D02*
X37304509Y-168872257D01*
X37304509Y-168872257D02*
X37375938Y-168943685D01*
X37375938Y-168943685D02*
X37447366Y-169086542D01*
X37447366Y-169086542D02*
X37447366Y-169300828D01*
X37447366Y-169300828D02*
X37375938Y-169443685D01*
X37375938Y-169443685D02*
X37304509Y-169515114D01*
X37304509Y-169515114D02*
X37161652Y-169586542D01*
X37161652Y-169586542D02*
X36590223Y-169586542D01*
X38733081Y-170300828D02*
X38733081Y-169515114D01*
X38733081Y-169515114D02*
X38661652Y-169372257D01*
X38661652Y-169372257D02*
X38518795Y-169300828D01*
X38518795Y-169300828D02*
X38233081Y-169300828D01*
X38233081Y-169300828D02*
X38090223Y-169372257D01*
X38733081Y-170229400D02*
X38590223Y-170300828D01*
X38590223Y-170300828D02*
X38233081Y-170300828D01*
X38233081Y-170300828D02*
X38090223Y-170229400D01*
X38090223Y-170229400D02*
X38018795Y-170086542D01*
X38018795Y-170086542D02*
X38018795Y-169943685D01*
X38018795Y-169943685D02*
X38090223Y-169800828D01*
X38090223Y-169800828D02*
X38233081Y-169729400D01*
X38233081Y-169729400D02*
X38590223Y-169729400D01*
X38590223Y-169729400D02*
X38733081Y-169657971D01*
X39375938Y-170229400D02*
X39518795Y-170300828D01*
X39518795Y-170300828D02*
X39804509Y-170300828D01*
X39804509Y-170300828D02*
X39947366Y-170229400D01*
X39947366Y-170229400D02*
X40018795Y-170086542D01*
X40018795Y-170086542D02*
X40018795Y-170015114D01*
X40018795Y-170015114D02*
X39947366Y-169872257D01*
X39947366Y-169872257D02*
X39804509Y-169800828D01*
X39804509Y-169800828D02*
X39590224Y-169800828D01*
X39590224Y-169800828D02*
X39447366Y-169729400D01*
X39447366Y-169729400D02*
X39375938Y-169586542D01*
X39375938Y-169586542D02*
X39375938Y-169515114D01*
X39375938Y-169515114D02*
X39447366Y-169372257D01*
X39447366Y-169372257D02*
X39590224Y-169300828D01*
X39590224Y-169300828D02*
X39804509Y-169300828D01*
X39804509Y-169300828D02*
X39947366Y-169372257D01*
X40447367Y-169300828D02*
X41018795Y-169300828D01*
X40661652Y-168800828D02*
X40661652Y-170086542D01*
X40661652Y-170086542D02*
X40733081Y-170229400D01*
X40733081Y-170229400D02*
X40875938Y-170300828D01*
X40875938Y-170300828D02*
X41018795Y-170300828D01*
X42090224Y-170229400D02*
X41947367Y-170300828D01*
X41947367Y-170300828D02*
X41661653Y-170300828D01*
X41661653Y-170300828D02*
X41518795Y-170229400D01*
X41518795Y-170229400D02*
X41447367Y-170086542D01*
X41447367Y-170086542D02*
X41447367Y-169515114D01*
X41447367Y-169515114D02*
X41518795Y-169372257D01*
X41518795Y-169372257D02*
X41661653Y-169300828D01*
X41661653Y-169300828D02*
X41947367Y-169300828D01*
X41947367Y-169300828D02*
X42090224Y-169372257D01*
X42090224Y-169372257D02*
X42161653Y-169515114D01*
X42161653Y-169515114D02*
X42161653Y-169657971D01*
X42161653Y-169657971D02*
X41447367Y-169800828D01*
X44447366Y-169515114D02*
X44661652Y-169586542D01*
X44661652Y-169586542D02*
X44733081Y-169657971D01*
X44733081Y-169657971D02*
X44804509Y-169800828D01*
X44804509Y-169800828D02*
X44804509Y-170015114D01*
X44804509Y-170015114D02*
X44733081Y-170157971D01*
X44733081Y-170157971D02*
X44661652Y-170229400D01*
X44661652Y-170229400D02*
X44518795Y-170300828D01*
X44518795Y-170300828D02*
X43947366Y-170300828D01*
X43947366Y-170300828D02*
X43947366Y-168800828D01*
X43947366Y-168800828D02*
X44447366Y-168800828D01*
X44447366Y-168800828D02*
X44590224Y-168872257D01*
X44590224Y-168872257D02*
X44661652Y-168943685D01*
X44661652Y-168943685D02*
X44733081Y-169086542D01*
X44733081Y-169086542D02*
X44733081Y-169229400D01*
X44733081Y-169229400D02*
X44661652Y-169372257D01*
X44661652Y-169372257D02*
X44590224Y-169443685D01*
X44590224Y-169443685D02*
X44447366Y-169515114D01*
X44447366Y-169515114D02*
X43947366Y-169515114D01*
X46090224Y-170300828D02*
X46090224Y-169515114D01*
X46090224Y-169515114D02*
X46018795Y-169372257D01*
X46018795Y-169372257D02*
X45875938Y-169300828D01*
X45875938Y-169300828D02*
X45590224Y-169300828D01*
X45590224Y-169300828D02*
X45447366Y-169372257D01*
X46090224Y-170229400D02*
X45947366Y-170300828D01*
X45947366Y-170300828D02*
X45590224Y-170300828D01*
X45590224Y-170300828D02*
X45447366Y-170229400D01*
X45447366Y-170229400D02*
X45375938Y-170086542D01*
X45375938Y-170086542D02*
X45375938Y-169943685D01*
X45375938Y-169943685D02*
X45447366Y-169800828D01*
X45447366Y-169800828D02*
X45590224Y-169729400D01*
X45590224Y-169729400D02*
X45947366Y-169729400D01*
X45947366Y-169729400D02*
X46090224Y-169657971D01*
X47447367Y-170229400D02*
X47304509Y-170300828D01*
X47304509Y-170300828D02*
X47018795Y-170300828D01*
X47018795Y-170300828D02*
X46875938Y-170229400D01*
X46875938Y-170229400D02*
X46804509Y-170157971D01*
X46804509Y-170157971D02*
X46733081Y-170015114D01*
X46733081Y-170015114D02*
X46733081Y-169586542D01*
X46733081Y-169586542D02*
X46804509Y-169443685D01*
X46804509Y-169443685D02*
X46875938Y-169372257D01*
X46875938Y-169372257D02*
X47018795Y-169300828D01*
X47018795Y-169300828D02*
X47304509Y-169300828D01*
X47304509Y-169300828D02*
X47447367Y-169372257D01*
X48090223Y-170300828D02*
X48090223Y-168800828D01*
X48233081Y-169729400D02*
X48661652Y-170300828D01*
X48661652Y-169300828D02*
X48090223Y-169872257D01*
X50875938Y-170872257D02*
X50804509Y-170800828D01*
X50804509Y-170800828D02*
X50661652Y-170586542D01*
X50661652Y-170586542D02*
X50590224Y-170443685D01*
X50590224Y-170443685D02*
X50518795Y-170229400D01*
X50518795Y-170229400D02*
X50447366Y-169872257D01*
X50447366Y-169872257D02*
X50447366Y-169586542D01*
X50447366Y-169586542D02*
X50518795Y-169229400D01*
X50518795Y-169229400D02*
X50590224Y-169015114D01*
X50590224Y-169015114D02*
X50661652Y-168872257D01*
X50661652Y-168872257D02*
X50804509Y-168657971D01*
X50804509Y-168657971D02*
X50875938Y-168586542D01*
X51947366Y-169515114D02*
X51447366Y-169515114D01*
X51447366Y-170300828D02*
X51447366Y-168800828D01*
X51447366Y-168800828D02*
X52161652Y-168800828D01*
X52733080Y-170157971D02*
X52804509Y-170229400D01*
X52804509Y-170229400D02*
X52733080Y-170300828D01*
X52733080Y-170300828D02*
X52661652Y-170229400D01*
X52661652Y-170229400D02*
X52733080Y-170157971D01*
X52733080Y-170157971D02*
X52733080Y-170300828D01*
X53447366Y-170300828D02*
X53447366Y-168800828D01*
X53447366Y-168800828D02*
X54018795Y-168800828D01*
X54018795Y-168800828D02*
X54161652Y-168872257D01*
X54161652Y-168872257D02*
X54233081Y-168943685D01*
X54233081Y-168943685D02*
X54304509Y-169086542D01*
X54304509Y-169086542D02*
X54304509Y-169300828D01*
X54304509Y-169300828D02*
X54233081Y-169443685D01*
X54233081Y-169443685D02*
X54161652Y-169515114D01*
X54161652Y-169515114D02*
X54018795Y-169586542D01*
X54018795Y-169586542D02*
X53447366Y-169586542D01*
X55590224Y-170300828D02*
X55590224Y-169515114D01*
X55590224Y-169515114D02*
X55518795Y-169372257D01*
X55518795Y-169372257D02*
X55375938Y-169300828D01*
X55375938Y-169300828D02*
X55090224Y-169300828D01*
X55090224Y-169300828D02*
X54947366Y-169372257D01*
X55590224Y-170229400D02*
X55447366Y-170300828D01*
X55447366Y-170300828D02*
X55090224Y-170300828D01*
X55090224Y-170300828D02*
X54947366Y-170229400D01*
X54947366Y-170229400D02*
X54875938Y-170086542D01*
X54875938Y-170086542D02*
X54875938Y-169943685D01*
X54875938Y-169943685D02*
X54947366Y-169800828D01*
X54947366Y-169800828D02*
X55090224Y-169729400D01*
X55090224Y-169729400D02*
X55447366Y-169729400D01*
X55447366Y-169729400D02*
X55590224Y-169657971D01*
X56233081Y-170229400D02*
X56375938Y-170300828D01*
X56375938Y-170300828D02*
X56661652Y-170300828D01*
X56661652Y-170300828D02*
X56804509Y-170229400D01*
X56804509Y-170229400D02*
X56875938Y-170086542D01*
X56875938Y-170086542D02*
X56875938Y-170015114D01*
X56875938Y-170015114D02*
X56804509Y-169872257D01*
X56804509Y-169872257D02*
X56661652Y-169800828D01*
X56661652Y-169800828D02*
X56447367Y-169800828D01*
X56447367Y-169800828D02*
X56304509Y-169729400D01*
X56304509Y-169729400D02*
X56233081Y-169586542D01*
X56233081Y-169586542D02*
X56233081Y-169515114D01*
X56233081Y-169515114D02*
X56304509Y-169372257D01*
X56304509Y-169372257D02*
X56447367Y-169300828D01*
X56447367Y-169300828D02*
X56661652Y-169300828D01*
X56661652Y-169300828D02*
X56804509Y-169372257D01*
X57304510Y-169300828D02*
X57875938Y-169300828D01*
X57518795Y-168800828D02*
X57518795Y-170086542D01*
X57518795Y-170086542D02*
X57590224Y-170229400D01*
X57590224Y-170229400D02*
X57733081Y-170300828D01*
X57733081Y-170300828D02*
X57875938Y-170300828D01*
X58947367Y-170229400D02*
X58804510Y-170300828D01*
X58804510Y-170300828D02*
X58518796Y-170300828D01*
X58518796Y-170300828D02*
X58375938Y-170229400D01*
X58375938Y-170229400D02*
X58304510Y-170086542D01*
X58304510Y-170086542D02*
X58304510Y-169515114D01*
X58304510Y-169515114D02*
X58375938Y-169372257D01*
X58375938Y-169372257D02*
X58518796Y-169300828D01*
X58518796Y-169300828D02*
X58804510Y-169300828D01*
X58804510Y-169300828D02*
X58947367Y-169372257D01*
X58947367Y-169372257D02*
X59018796Y-169515114D01*
X59018796Y-169515114D02*
X59018796Y-169657971D01*
X59018796Y-169657971D02*
X58304510Y-169800828D01*
X59518795Y-170872257D02*
X59590224Y-170800828D01*
X59590224Y-170800828D02*
X59733081Y-170586542D01*
X59733081Y-170586542D02*
X59804510Y-170443685D01*
X59804510Y-170443685D02*
X59875938Y-170229400D01*
X59875938Y-170229400D02*
X59947367Y-169872257D01*
X59947367Y-169872257D02*
X59947367Y-169586542D01*
X59947367Y-169586542D02*
X59875938Y-169229400D01*
X59875938Y-169229400D02*
X59804510Y-169015114D01*
X59804510Y-169015114D02*
X59733081Y-168872257D01*
X59733081Y-168872257D02*
X59590224Y-168657971D01*
X59590224Y-168657971D02*
X59518795Y-168586542D01*
D11*
X63387500Y-128000000D03*
X58112500Y-128000000D03*
D12*
X77900000Y-119330000D03*
X76630000Y-119330000D03*
X75360000Y-119330000D03*
X74090000Y-119330000D03*
D13*
X77150000Y-121500000D03*
X76000000Y-121500000D03*
X74850000Y-121500000D03*
X77150000Y-122350000D03*
X76000000Y-122350000D03*
X74850000Y-122350000D03*
X77150000Y-123200000D03*
X76000000Y-123200000D03*
X74850000Y-123200000D03*
D14*
X77880000Y-125050000D03*
X76600000Y-125050000D03*
X75400000Y-125050000D03*
X74120000Y-125050000D03*
D12*
X77900000Y-89330000D03*
X76630000Y-89330000D03*
X75360000Y-89330000D03*
X74090000Y-89330000D03*
D13*
X77150000Y-91500000D03*
X76000000Y-91500000D03*
X74850000Y-91500000D03*
X77150000Y-92350000D03*
X76000000Y-92350000D03*
X74850000Y-92350000D03*
X77150000Y-93200000D03*
X76000000Y-93200000D03*
X74850000Y-93200000D03*
D14*
X77880000Y-95050000D03*
X76600000Y-95050000D03*
X75400000Y-95050000D03*
X74120000Y-95050000D03*
D15*
X112662500Y-77776281D03*
X117937500Y-77776281D03*
D16*
X95000000Y-82000000D03*
D12*
X77900000Y-59330000D03*
X76630000Y-59330000D03*
X75360000Y-59330000D03*
X74090000Y-59330000D03*
D13*
X77150000Y-61500000D03*
X76000000Y-61500000D03*
X74850000Y-61500000D03*
X77150000Y-62350000D03*
X76000000Y-62350000D03*
X74850000Y-62350000D03*
X77150000Y-63200000D03*
X76000000Y-63200000D03*
X74850000Y-63200000D03*
D14*
X77880000Y-65050000D03*
X76600000Y-65050000D03*
X75400000Y-65050000D03*
X74120000Y-65050000D03*
D11*
X63387500Y-98000000D03*
X58112500Y-98000000D03*
D17*
X63080000Y-50420000D03*
X63080000Y-51690000D03*
X63080000Y-52960000D03*
X63080000Y-54230000D03*
D14*
X65250000Y-51170000D03*
X65250000Y-52320000D03*
X65250000Y-53470000D03*
X66100000Y-51170000D03*
X66100000Y-52320000D03*
X66100000Y-53470000D03*
X66950000Y-51170000D03*
X66950000Y-52320000D03*
X66950000Y-53470000D03*
D13*
X68800000Y-50440000D03*
X68800000Y-51720000D03*
X68800000Y-52920000D03*
X68800000Y-54200000D03*
D11*
X63387500Y-68000000D03*
X58112500Y-68000000D03*
D15*
X112662500Y-122933968D03*
X117937500Y-122933968D03*
D16*
X95000000Y-112000000D03*
D17*
X63080000Y-110420000D03*
X63080000Y-111690000D03*
X63080000Y-112960000D03*
X63080000Y-114230000D03*
D14*
X65250000Y-111170000D03*
X65250000Y-112320000D03*
X65250000Y-113470000D03*
X66100000Y-111170000D03*
X66100000Y-112320000D03*
X66100000Y-113470000D03*
X66950000Y-111170000D03*
X66950000Y-112320000D03*
X66950000Y-113470000D03*
D13*
X68800000Y-110440000D03*
X68800000Y-111720000D03*
X68800000Y-112920000D03*
X68800000Y-114200000D03*
D16*
X95000000Y-52000000D03*
D17*
X63080000Y-80420000D03*
X63080000Y-81690000D03*
X63080000Y-82960000D03*
X63080000Y-84230000D03*
D14*
X65250000Y-81170000D03*
X65250000Y-82320000D03*
X65250000Y-83470000D03*
X66100000Y-81170000D03*
X66100000Y-82320000D03*
X66100000Y-83470000D03*
X66950000Y-81170000D03*
X66950000Y-82320000D03*
X66950000Y-83470000D03*
D13*
X68800000Y-80440000D03*
X68800000Y-81720000D03*
X68800000Y-82920000D03*
X68800000Y-84200000D03*
M02*
