G04 #@! TF.GenerationSoftware,KiCad,Pcbnew,9.0.3*
G04 #@! TF.CreationDate,2026-02-18T20:02:50+00:00*
G04 #@! TF.ProjectId,nevb_mtr1_i56_1,6e657662-5f6d-4747-9231-5f6935365f31,01*
G04 #@! TF.SameCoordinates,Original*
G04 #@! TF.FileFunction,Soldermask,Bot*
G04 #@! TF.FilePolarity,Negative*
%FSLAX46Y46*%
G04 Gerber Fmt 4.6, Leading zero omitted, Abs format (unit mm)*
G04 Created by KiCad (PCBNEW 9.0.3) date 2026-02-18 20:02:50*
%MOMM*%
%LPD*%
G01*
G04 APERTURE LIST*
G04 Aperture macros list*
%AMRoundRect*
0 Rectangle with rounded corners*
0 $1 Rounding radius*
0 $2 $3 $4 $5 $6 $7 $8 $9 X,Y pos of 4 corners*
0 Add a 4 corners polygon primitive as box body*
4,1,4,$2,$3,$4,$5,$6,$7,$8,$9,$2,$3,0*
0 Add four circle primitives for the rounded corners*
1,1,$1+$1,$2,$3*
1,1,$1+$1,$4,$5*
1,1,$1+$1,$6,$7*
1,1,$1+$1,$8,$9*
0 Add four rect primitives between the rounded corners*
20,1,$1+$1,$2,$3,$4,$5,0*
20,1,$1+$1,$4,$5,$6,$7,0*
20,1,$1+$1,$6,$7,$8,$9,0*
20,1,$1+$1,$8,$9,$2,$3,0*%
%AMFreePoly0*
4,1,9,2.975000,-2.350000,1.425000,-2.350000,1.425000,-2.100000,-1.650000,-2.100000,-1.650000,2.100000,1.425000,2.100000,1.425000,2.350000,2.975000,2.350000,2.975000,-2.350000,2.975000,-2.350000,$1*%
G04 Aperture macros list end*
%ADD10C,0.300000*%
%ADD11R,3.000000X3.000000*%
%ADD12C,3.000000*%
%ADD13C,7.900000*%
%ADD14C,2.300000*%
%ADD15C,1.400000*%
%ADD16C,5.700000*%
%ADD17R,15.000000X10.000000*%
%ADD18R,1.700000X1.700000*%
%ADD19O,1.700000X1.700000*%
%ADD20RoundRect,0.250001X-0.949999X-0.949999X0.949999X-0.949999X0.949999X0.949999X-0.949999X0.949999X0*%
%ADD21C,2.400000*%
%ADD22C,2.100000*%
%ADD23C,0.650000*%
%ADD24O,1.000000X2.100000*%
%ADD25O,1.000000X1.800000*%
%ADD26C,1.700000*%
%ADD27C,1.000000*%
%ADD28RoundRect,0.249999X0.737501X2.450001X-0.737501X2.450001X-0.737501X-2.450001X0.737501X-2.450001X0*%
%ADD29R,0.700000X1.150000*%
%ADD30FreePoly0,270.000000*%
%ADD31RoundRect,0.249999X-0.737501X-2.450001X0.737501X-2.450001X0.737501X2.450001X-0.737501X2.450001X0*%
%ADD32C,9.500000*%
%ADD33R,1.150000X0.700000*%
%ADD34FreePoly0,0.000000*%
%ADD35R,1.350000X1.350000*%
%ADD36C,1.350000*%
G04 APERTURE END LIST*
D10*
X28169082Y-180323400D02*
X28383368Y-180394828D01*
X28383368Y-180394828D02*
X28740510Y-180394828D01*
X28740510Y-180394828D02*
X28883368Y-180323400D01*
X28883368Y-180323400D02*
X28954796Y-180251971D01*
X28954796Y-180251971D02*
X29026225Y-180109114D01*
X29026225Y-180109114D02*
X29026225Y-179966257D01*
X29026225Y-179966257D02*
X28954796Y-179823400D01*
X28954796Y-179823400D02*
X28883368Y-179751971D01*
X28883368Y-179751971D02*
X28740510Y-179680542D01*
X28740510Y-179680542D02*
X28454796Y-179609114D01*
X28454796Y-179609114D02*
X28311939Y-179537685D01*
X28311939Y-179537685D02*
X28240510Y-179466257D01*
X28240510Y-179466257D02*
X28169082Y-179323400D01*
X28169082Y-179323400D02*
X28169082Y-179180542D01*
X28169082Y-179180542D02*
X28240510Y-179037685D01*
X28240510Y-179037685D02*
X28311939Y-178966257D01*
X28311939Y-178966257D02*
X28454796Y-178894828D01*
X28454796Y-178894828D02*
X28811939Y-178894828D01*
X28811939Y-178894828D02*
X29026225Y-178966257D01*
X29883367Y-180394828D02*
X29740510Y-180323400D01*
X29740510Y-180323400D02*
X29669081Y-180251971D01*
X29669081Y-180251971D02*
X29597653Y-180109114D01*
X29597653Y-180109114D02*
X29597653Y-179680542D01*
X29597653Y-179680542D02*
X29669081Y-179537685D01*
X29669081Y-179537685D02*
X29740510Y-179466257D01*
X29740510Y-179466257D02*
X29883367Y-179394828D01*
X29883367Y-179394828D02*
X30097653Y-179394828D01*
X30097653Y-179394828D02*
X30240510Y-179466257D01*
X30240510Y-179466257D02*
X30311939Y-179537685D01*
X30311939Y-179537685D02*
X30383367Y-179680542D01*
X30383367Y-179680542D02*
X30383367Y-180109114D01*
X30383367Y-180109114D02*
X30311939Y-180251971D01*
X30311939Y-180251971D02*
X30240510Y-180323400D01*
X30240510Y-180323400D02*
X30097653Y-180394828D01*
X30097653Y-180394828D02*
X29883367Y-180394828D01*
X31240510Y-180394828D02*
X31097653Y-180323400D01*
X31097653Y-180323400D02*
X31026224Y-180180542D01*
X31026224Y-180180542D02*
X31026224Y-178894828D01*
X32454796Y-180394828D02*
X32454796Y-178894828D01*
X32454796Y-180323400D02*
X32311938Y-180394828D01*
X32311938Y-180394828D02*
X32026224Y-180394828D01*
X32026224Y-180394828D02*
X31883367Y-180323400D01*
X31883367Y-180323400D02*
X31811938Y-180251971D01*
X31811938Y-180251971D02*
X31740510Y-180109114D01*
X31740510Y-180109114D02*
X31740510Y-179680542D01*
X31740510Y-179680542D02*
X31811938Y-179537685D01*
X31811938Y-179537685D02*
X31883367Y-179466257D01*
X31883367Y-179466257D02*
X32026224Y-179394828D01*
X32026224Y-179394828D02*
X32311938Y-179394828D01*
X32311938Y-179394828D02*
X32454796Y-179466257D01*
X33740510Y-180323400D02*
X33597653Y-180394828D01*
X33597653Y-180394828D02*
X33311939Y-180394828D01*
X33311939Y-180394828D02*
X33169081Y-180323400D01*
X33169081Y-180323400D02*
X33097653Y-180180542D01*
X33097653Y-180180542D02*
X33097653Y-179609114D01*
X33097653Y-179609114D02*
X33169081Y-179466257D01*
X33169081Y-179466257D02*
X33311939Y-179394828D01*
X33311939Y-179394828D02*
X33597653Y-179394828D01*
X33597653Y-179394828D02*
X33740510Y-179466257D01*
X33740510Y-179466257D02*
X33811939Y-179609114D01*
X33811939Y-179609114D02*
X33811939Y-179751971D01*
X33811939Y-179751971D02*
X33097653Y-179894828D01*
X34454795Y-180394828D02*
X34454795Y-179394828D01*
X34454795Y-179680542D02*
X34526224Y-179537685D01*
X34526224Y-179537685D02*
X34597653Y-179466257D01*
X34597653Y-179466257D02*
X34740510Y-179394828D01*
X34740510Y-179394828D02*
X34883367Y-179394828D01*
X36526223Y-180394828D02*
X36526223Y-178894828D01*
X36526223Y-178894828D02*
X37026223Y-179966257D01*
X37026223Y-179966257D02*
X37526223Y-178894828D01*
X37526223Y-178894828D02*
X37526223Y-180394828D01*
X38883367Y-180394828D02*
X38883367Y-179609114D01*
X38883367Y-179609114D02*
X38811938Y-179466257D01*
X38811938Y-179466257D02*
X38669081Y-179394828D01*
X38669081Y-179394828D02*
X38383367Y-179394828D01*
X38383367Y-179394828D02*
X38240509Y-179466257D01*
X38883367Y-180323400D02*
X38740509Y-180394828D01*
X38740509Y-180394828D02*
X38383367Y-180394828D01*
X38383367Y-180394828D02*
X38240509Y-180323400D01*
X38240509Y-180323400D02*
X38169081Y-180180542D01*
X38169081Y-180180542D02*
X38169081Y-180037685D01*
X38169081Y-180037685D02*
X38240509Y-179894828D01*
X38240509Y-179894828D02*
X38383367Y-179823400D01*
X38383367Y-179823400D02*
X38740509Y-179823400D01*
X38740509Y-179823400D02*
X38883367Y-179751971D01*
X39526224Y-180323400D02*
X39669081Y-180394828D01*
X39669081Y-180394828D02*
X39954795Y-180394828D01*
X39954795Y-180394828D02*
X40097652Y-180323400D01*
X40097652Y-180323400D02*
X40169081Y-180180542D01*
X40169081Y-180180542D02*
X40169081Y-180109114D01*
X40169081Y-180109114D02*
X40097652Y-179966257D01*
X40097652Y-179966257D02*
X39954795Y-179894828D01*
X39954795Y-179894828D02*
X39740510Y-179894828D01*
X39740510Y-179894828D02*
X39597652Y-179823400D01*
X39597652Y-179823400D02*
X39526224Y-179680542D01*
X39526224Y-179680542D02*
X39526224Y-179609114D01*
X39526224Y-179609114D02*
X39597652Y-179466257D01*
X39597652Y-179466257D02*
X39740510Y-179394828D01*
X39740510Y-179394828D02*
X39954795Y-179394828D01*
X39954795Y-179394828D02*
X40097652Y-179466257D01*
X40811938Y-180394828D02*
X40811938Y-178894828D01*
X40954796Y-179823400D02*
X41383367Y-180394828D01*
X41383367Y-179394828D02*
X40811938Y-179966257D01*
X43669081Y-179609114D02*
X43883367Y-179680542D01*
X43883367Y-179680542D02*
X43954796Y-179751971D01*
X43954796Y-179751971D02*
X44026224Y-179894828D01*
X44026224Y-179894828D02*
X44026224Y-180109114D01*
X44026224Y-180109114D02*
X43954796Y-180251971D01*
X43954796Y-180251971D02*
X43883367Y-180323400D01*
X43883367Y-180323400D02*
X43740510Y-180394828D01*
X43740510Y-180394828D02*
X43169081Y-180394828D01*
X43169081Y-180394828D02*
X43169081Y-178894828D01*
X43169081Y-178894828D02*
X43669081Y-178894828D01*
X43669081Y-178894828D02*
X43811939Y-178966257D01*
X43811939Y-178966257D02*
X43883367Y-179037685D01*
X43883367Y-179037685D02*
X43954796Y-179180542D01*
X43954796Y-179180542D02*
X43954796Y-179323400D01*
X43954796Y-179323400D02*
X43883367Y-179466257D01*
X43883367Y-179466257D02*
X43811939Y-179537685D01*
X43811939Y-179537685D02*
X43669081Y-179609114D01*
X43669081Y-179609114D02*
X43169081Y-179609114D01*
X45311939Y-180394828D02*
X45311939Y-179609114D01*
X45311939Y-179609114D02*
X45240510Y-179466257D01*
X45240510Y-179466257D02*
X45097653Y-179394828D01*
X45097653Y-179394828D02*
X44811939Y-179394828D01*
X44811939Y-179394828D02*
X44669081Y-179466257D01*
X45311939Y-180323400D02*
X45169081Y-180394828D01*
X45169081Y-180394828D02*
X44811939Y-180394828D01*
X44811939Y-180394828D02*
X44669081Y-180323400D01*
X44669081Y-180323400D02*
X44597653Y-180180542D01*
X44597653Y-180180542D02*
X44597653Y-180037685D01*
X44597653Y-180037685D02*
X44669081Y-179894828D01*
X44669081Y-179894828D02*
X44811939Y-179823400D01*
X44811939Y-179823400D02*
X45169081Y-179823400D01*
X45169081Y-179823400D02*
X45311939Y-179751971D01*
X46669082Y-180323400D02*
X46526224Y-180394828D01*
X46526224Y-180394828D02*
X46240510Y-180394828D01*
X46240510Y-180394828D02*
X46097653Y-180323400D01*
X46097653Y-180323400D02*
X46026224Y-180251971D01*
X46026224Y-180251971D02*
X45954796Y-180109114D01*
X45954796Y-180109114D02*
X45954796Y-179680542D01*
X45954796Y-179680542D02*
X46026224Y-179537685D01*
X46026224Y-179537685D02*
X46097653Y-179466257D01*
X46097653Y-179466257D02*
X46240510Y-179394828D01*
X46240510Y-179394828D02*
X46526224Y-179394828D01*
X46526224Y-179394828D02*
X46669082Y-179466257D01*
X47311938Y-180394828D02*
X47311938Y-178894828D01*
X47454796Y-179823400D02*
X47883367Y-180394828D01*
X47883367Y-179394828D02*
X47311938Y-179966257D01*
X50097653Y-180966257D02*
X50026224Y-180894828D01*
X50026224Y-180894828D02*
X49883367Y-180680542D01*
X49883367Y-180680542D02*
X49811939Y-180537685D01*
X49811939Y-180537685D02*
X49740510Y-180323400D01*
X49740510Y-180323400D02*
X49669081Y-179966257D01*
X49669081Y-179966257D02*
X49669081Y-179680542D01*
X49669081Y-179680542D02*
X49740510Y-179323400D01*
X49740510Y-179323400D02*
X49811939Y-179109114D01*
X49811939Y-179109114D02*
X49883367Y-178966257D01*
X49883367Y-178966257D02*
X50026224Y-178751971D01*
X50026224Y-178751971D02*
X50097653Y-178680542D01*
X51169081Y-179609114D02*
X51383367Y-179680542D01*
X51383367Y-179680542D02*
X51454796Y-179751971D01*
X51454796Y-179751971D02*
X51526224Y-179894828D01*
X51526224Y-179894828D02*
X51526224Y-180109114D01*
X51526224Y-180109114D02*
X51454796Y-180251971D01*
X51454796Y-180251971D02*
X51383367Y-180323400D01*
X51383367Y-180323400D02*
X51240510Y-180394828D01*
X51240510Y-180394828D02*
X50669081Y-180394828D01*
X50669081Y-180394828D02*
X50669081Y-178894828D01*
X50669081Y-178894828D02*
X51169081Y-178894828D01*
X51169081Y-178894828D02*
X51311939Y-178966257D01*
X51311939Y-178966257D02*
X51383367Y-179037685D01*
X51383367Y-179037685D02*
X51454796Y-179180542D01*
X51454796Y-179180542D02*
X51454796Y-179323400D01*
X51454796Y-179323400D02*
X51383367Y-179466257D01*
X51383367Y-179466257D02*
X51311939Y-179537685D01*
X51311939Y-179537685D02*
X51169081Y-179609114D01*
X51169081Y-179609114D02*
X50669081Y-179609114D01*
X52169081Y-180251971D02*
X52240510Y-180323400D01*
X52240510Y-180323400D02*
X52169081Y-180394828D01*
X52169081Y-180394828D02*
X52097653Y-180323400D01*
X52097653Y-180323400D02*
X52169081Y-180251971D01*
X52169081Y-180251971D02*
X52169081Y-180394828D01*
X52883367Y-180394828D02*
X52883367Y-178894828D01*
X52883367Y-178894828D02*
X53383367Y-179966257D01*
X53383367Y-179966257D02*
X53883367Y-178894828D01*
X53883367Y-178894828D02*
X53883367Y-180394828D01*
X55240511Y-180394828D02*
X55240511Y-179609114D01*
X55240511Y-179609114D02*
X55169082Y-179466257D01*
X55169082Y-179466257D02*
X55026225Y-179394828D01*
X55026225Y-179394828D02*
X54740511Y-179394828D01*
X54740511Y-179394828D02*
X54597653Y-179466257D01*
X55240511Y-180323400D02*
X55097653Y-180394828D01*
X55097653Y-180394828D02*
X54740511Y-180394828D01*
X54740511Y-180394828D02*
X54597653Y-180323400D01*
X54597653Y-180323400D02*
X54526225Y-180180542D01*
X54526225Y-180180542D02*
X54526225Y-180037685D01*
X54526225Y-180037685D02*
X54597653Y-179894828D01*
X54597653Y-179894828D02*
X54740511Y-179823400D01*
X54740511Y-179823400D02*
X55097653Y-179823400D01*
X55097653Y-179823400D02*
X55240511Y-179751971D01*
X55883368Y-180323400D02*
X56026225Y-180394828D01*
X56026225Y-180394828D02*
X56311939Y-180394828D01*
X56311939Y-180394828D02*
X56454796Y-180323400D01*
X56454796Y-180323400D02*
X56526225Y-180180542D01*
X56526225Y-180180542D02*
X56526225Y-180109114D01*
X56526225Y-180109114D02*
X56454796Y-179966257D01*
X56454796Y-179966257D02*
X56311939Y-179894828D01*
X56311939Y-179894828D02*
X56097654Y-179894828D01*
X56097654Y-179894828D02*
X55954796Y-179823400D01*
X55954796Y-179823400D02*
X55883368Y-179680542D01*
X55883368Y-179680542D02*
X55883368Y-179609114D01*
X55883368Y-179609114D02*
X55954796Y-179466257D01*
X55954796Y-179466257D02*
X56097654Y-179394828D01*
X56097654Y-179394828D02*
X56311939Y-179394828D01*
X56311939Y-179394828D02*
X56454796Y-179466257D01*
X57169082Y-180394828D02*
X57169082Y-178894828D01*
X57311940Y-179823400D02*
X57740511Y-180394828D01*
X57740511Y-179394828D02*
X57169082Y-179966257D01*
X58240511Y-180966257D02*
X58311940Y-180894828D01*
X58311940Y-180894828D02*
X58454797Y-180680542D01*
X58454797Y-180680542D02*
X58526226Y-180537685D01*
X58526226Y-180537685D02*
X58597654Y-180323400D01*
X58597654Y-180323400D02*
X58669083Y-179966257D01*
X58669083Y-179966257D02*
X58669083Y-179680542D01*
X58669083Y-179680542D02*
X58597654Y-179323400D01*
X58597654Y-179323400D02*
X58526226Y-179109114D01*
X58526226Y-179109114D02*
X58454797Y-178966257D01*
X58454797Y-178966257D02*
X58311940Y-178751971D01*
X58311940Y-178751971D02*
X58240511Y-178680542D01*
D11*
X115550000Y-105655123D03*
D12*
X115550000Y-100655123D03*
X115550000Y-95655123D03*
D13*
X110500000Y-31750000D03*
D14*
X73500000Y-75007131D03*
D15*
X73500000Y-72467131D03*
D16*
X119394000Y-141538000D03*
D14*
X54000000Y-52750000D03*
D15*
X54000000Y-55290000D03*
D16*
X119394000Y-27118000D03*
D12*
X43500000Y-83250000D03*
D17*
X49250000Y-139750000D03*
D18*
X36265000Y-78660625D03*
D19*
X33725000Y-78660625D03*
X36265000Y-81200625D03*
X33725000Y-81200625D03*
X36265000Y-83740625D03*
X33725000Y-83740625D03*
X36265000Y-86280625D03*
X33725000Y-86280625D03*
X36265000Y-88820625D03*
X33725000Y-88820625D03*
X36265000Y-91360625D03*
X33725000Y-91360625D03*
X36265000Y-93900625D03*
X33725000Y-93900625D03*
D20*
X113176041Y-129960250D03*
D21*
X118176041Y-129960250D03*
D14*
X73500000Y-45007131D03*
D15*
X73500000Y-42467131D03*
D20*
X113176041Y-84802562D03*
D21*
X118176041Y-84802562D03*
D15*
X62330000Y-62250000D03*
D22*
X59790000Y-62250000D03*
D15*
X57250000Y-62250000D03*
D14*
X81000000Y-61750000D03*
D15*
X81000000Y-59210000D03*
D13*
X62000000Y-139750000D03*
D15*
X62330000Y-122250000D03*
D22*
X59790000Y-122250000D03*
D15*
X57250000Y-122250000D03*
D23*
X51140000Y-27930000D03*
X45360000Y-27930000D03*
D24*
X52570000Y-28430000D03*
D25*
X52570000Y-24250000D03*
D24*
X43930000Y-28430000D03*
D25*
X43930000Y-24250000D03*
D16*
X34450000Y-141538000D03*
D12*
X51750000Y-68750000D03*
D18*
X36265000Y-64690625D03*
D19*
X33725000Y-64690625D03*
X36265000Y-67230625D03*
X33725000Y-67230625D03*
X36265000Y-69770625D03*
X33725000Y-69770625D03*
X36265000Y-72310625D03*
X33725000Y-72310625D03*
D14*
X81000000Y-121750000D03*
D15*
X81000000Y-119210000D03*
D14*
X81000000Y-91750000D03*
D15*
X81000000Y-89210000D03*
D17*
X111250000Y-42460000D03*
D15*
X62330000Y-92250000D03*
D22*
X59790000Y-92250000D03*
D15*
X57250000Y-92250000D03*
D14*
X54000000Y-82750000D03*
D15*
X54000000Y-85290000D03*
D14*
X73500000Y-105007131D03*
D15*
X73500000Y-102467131D03*
D14*
X54000000Y-112750000D03*
D15*
X54000000Y-115290000D03*
D20*
X113176041Y-70750000D03*
D21*
X118176041Y-70750000D03*
D12*
X77250000Y-25500000D03*
D18*
X36265000Y-97710625D03*
D19*
X33725000Y-97710625D03*
X36265000Y-100250625D03*
X33725000Y-100250625D03*
X36265000Y-102790625D03*
X33725000Y-102790625D03*
X36265000Y-105330625D03*
X33725000Y-105330625D03*
X36265000Y-107870625D03*
X33725000Y-107870625D03*
X36265000Y-110410625D03*
X33725000Y-110410625D03*
X36265000Y-112950625D03*
X33725000Y-112950625D03*
D16*
X34450000Y-27118000D03*
D12*
X35000000Y-54500000D03*
X51750000Y-98250000D03*
D18*
X118460000Y-58025000D03*
D26*
X118460000Y-55485000D03*
X121000000Y-58025000D03*
X121000000Y-55485000D03*
D20*
X113176041Y-115907686D03*
D21*
X118176041Y-115907686D03*
D27*
X47000000Y-32750000D03*
D28*
X63387500Y-128000000D03*
X58112500Y-128000000D03*
D29*
X74090000Y-119330000D03*
X75360000Y-119330000D03*
X76630000Y-119330000D03*
X77900000Y-119330000D03*
D30*
X76000000Y-122600000D03*
D29*
X74090000Y-89330000D03*
X75360000Y-89330000D03*
X76630000Y-89330000D03*
X77900000Y-89330000D03*
D30*
X76000000Y-92600000D03*
D31*
X112662500Y-77776281D03*
X117937500Y-77776281D03*
D32*
X95000000Y-82000000D03*
D29*
X74090000Y-59330000D03*
X75360000Y-59330000D03*
X76630000Y-59330000D03*
X77900000Y-59330000D03*
D30*
X76000000Y-62600000D03*
D28*
X63387500Y-98000000D03*
X58112500Y-98000000D03*
D33*
X63080000Y-54230000D03*
X63080000Y-52960000D03*
X63080000Y-51690000D03*
X63080000Y-50420000D03*
D34*
X66350000Y-52320000D03*
D28*
X63387500Y-68000000D03*
X58112500Y-68000000D03*
D27*
X49000000Y-34500000D03*
D31*
X112662500Y-122933968D03*
X117937500Y-122933968D03*
D32*
X95000000Y-112000000D03*
D35*
X34500000Y-34750000D03*
D36*
X34500000Y-36750000D03*
X34500000Y-38750000D03*
D33*
X63080000Y-114230000D03*
X63080000Y-112960000D03*
X63080000Y-111690000D03*
X63080000Y-110420000D03*
D34*
X66350000Y-112320000D03*
D32*
X95000000Y-52000000D03*
D33*
X63080000Y-84230000D03*
X63080000Y-82960000D03*
X63080000Y-81690000D03*
X63080000Y-80420000D03*
D34*
X66350000Y-82320000D03*
M02*
