M48
; DRILL file {KiCad 9.0.3} date 2026-02-18T20:02:56+0000
; FORMAT={-:-/ absolute / metric / decimal}
; #@! TF.CreationDate,2026-02-18T20:02:56+00:00
; #@! TF.GenerationSoftware,Kicad,Pcbnew,9.0.3
; #@! TF.FileFunction,Plated,1,4,PTH
FMAT,2
METRIC
; #@! TA.AperFunction,Plated,PTH,ViaDrill
T1C0.300
; #@! TA.AperFunction,Plated,PTH,ViaDrill
T2C0.400
; #@! TA.AperFunction,Plated,PTH,ComponentDrill
T3C0.600
; #@! TA.AperFunction,Plated,PTH,ComponentDrill
T4C0.800
; #@! TA.AperFunction,Plated,PTH,ComponentDrill
T5C1.000
; #@! TA.AperFunction,Plated,PTH,ComponentDrill
T6C1.200
; #@! TA.AperFunction,Plated,PTH,ComponentDrill
T7C1.500
; #@! TA.AperFunction,Plated,PTH,ComponentDrill
T8C3.200
; #@! TA.AperFunction,Plated,PTH,ComponentDrill
T9C5.400
%
G90
G05
T1
X47.25Y-33.0
X48.0Y-30.75
X48.0Y-31.5
X48.0Y-32.25
X48.75Y-34.5
X109.8Y-55.265
X109.8Y-59.525
T2
X40.5Y-39.3
X42.43Y-49.08
X42.43Y-51.62
X42.43Y-54.16
X42.43Y-56.7
X42.43Y-59.24
X42.43Y-61.78
X42.43Y-71.94
X42.43Y-74.0
X42.43Y-76.54
X42.43Y-79.08
X42.43Y-89.24
X42.43Y-91.78
X42.43Y-94.32
X42.43Y-96.86
X42.43Y-99.4
X42.43Y-101.94
X42.43Y-109.08
X42.43Y-111.62
X42.43Y-114.16
X42.43Y-116.7
X42.43Y-119.24
X42.43Y-121.78
X42.43Y-124.32
X42.43Y-126.86
X42.43Y-129.4
X42.43Y-131.94
X42.5Y-65.75
X43.737Y-38.987
X44.5Y-38.0
X44.97Y-46.54
X44.97Y-49.08
X44.97Y-51.62
X44.97Y-54.16
X44.97Y-56.7
X44.97Y-59.24
X44.97Y-61.78
X44.97Y-64.32
X44.97Y-66.86
X44.97Y-69.4
X44.97Y-71.94
X44.97Y-74.0
X44.97Y-76.54
X44.97Y-79.08
X44.97Y-89.24
X44.97Y-91.78
X44.97Y-94.32
X44.97Y-96.86
X44.97Y-99.4
X44.97Y-101.94
X44.97Y-104.0
X44.97Y-106.54
X44.97Y-109.08
X44.97Y-111.62
X44.97Y-114.16
X44.97Y-116.7
X44.97Y-119.24
X44.97Y-121.78
X44.97Y-124.32
X44.97Y-126.86
X44.97Y-129.4
X44.97Y-131.94
X45.0Y-39.5
X45.75Y-35.25
X45.85Y-31.46
X46.0Y-40.5
X47.51Y-46.54
X47.51Y-49.08
X47.51Y-51.62
X47.51Y-54.16
X47.51Y-56.7
X47.51Y-59.24
X47.51Y-61.78
X47.51Y-64.32
X47.51Y-66.86
X47.51Y-69.4
X47.51Y-71.94
X47.51Y-74.0
X47.51Y-76.54
X47.51Y-79.08
X47.51Y-81.62
X47.51Y-84.16
X47.51Y-89.24
X47.51Y-91.78
X47.51Y-94.32
X47.51Y-96.86
X47.51Y-99.4
X47.51Y-101.94
X47.51Y-104.0
X47.51Y-106.54
X47.51Y-109.08
X47.51Y-111.62
X47.51Y-114.16
X47.51Y-116.7
X47.51Y-119.24
X47.51Y-121.78
X47.51Y-124.32
X47.51Y-126.86
X47.51Y-129.4
X47.51Y-131.94
X48.75Y-41.0
X49.98Y-40.5
X50.05Y-44.0
X50.05Y-46.54
X50.05Y-49.08
X50.05Y-51.62
X50.05Y-54.16
X50.05Y-56.7
X50.05Y-59.24
X50.05Y-61.78
X50.05Y-64.32
X50.05Y-71.94
X50.05Y-74.0
X50.05Y-76.54
X50.05Y-79.08
X50.05Y-81.62
X50.05Y-84.16
X50.05Y-89.24
X50.05Y-91.78
X50.05Y-94.32
X50.05Y-101.94
X50.05Y-104.0
X50.05Y-106.54
X50.05Y-109.08
X50.05Y-111.62
X50.05Y-114.16
X50.05Y-116.7
X50.05Y-119.24
X50.05Y-121.78
X50.05Y-124.32
X50.05Y-126.86
X50.05Y-129.4
X50.05Y-131.94
X51.75Y-33.0
X52.59Y-44.0
X52.59Y-46.54
X52.59Y-49.08
X52.59Y-56.7
X52.59Y-59.24
X52.59Y-61.78
X52.59Y-64.32
X52.59Y-71.94
X52.59Y-74.0
X52.59Y-76.54
X52.59Y-79.08
X52.59Y-89.24
X52.59Y-91.78
X52.59Y-94.32
X52.59Y-101.94
X52.59Y-104.0
X52.59Y-106.54
X52.59Y-116.7
X52.59Y-119.24
X52.59Y-121.78
X52.59Y-124.32
X52.59Y-126.86
X52.59Y-129.4
X52.59Y-131.94
X54.5Y-41.0
X55.088Y-64.441
X55.13Y-44.0
X55.13Y-46.54
X55.13Y-49.08
X55.13Y-56.7
X55.13Y-59.24
X55.13Y-66.86
X55.13Y-69.4
X55.13Y-71.94
X55.13Y-74.0
X55.13Y-76.54
X55.13Y-79.08
X55.13Y-89.24
X55.13Y-91.78
X55.13Y-94.32
X55.13Y-96.86
X55.13Y-99.4
X55.13Y-101.94
X55.13Y-104.0
X55.13Y-106.54
X55.13Y-109.08
X55.13Y-116.7
X55.13Y-119.24
X55.13Y-121.78
X55.13Y-124.32
X55.13Y-126.86
X55.13Y-129.4
X55.13Y-131.94
X56.4Y-45.27
X56.4Y-47.81
X56.4Y-50.35
X56.4Y-52.89
X56.4Y-65.59
X56.4Y-68.13
X56.4Y-70.67
X56.4Y-75.27
X56.4Y-77.81
X56.4Y-80.35
X56.4Y-82.89
X56.4Y-95.59
X56.4Y-98.13
X56.4Y-100.67
X56.4Y-105.27
X56.4Y-107.81
X56.4Y-110.35
X56.4Y-117.97
X56.4Y-125.59
X56.4Y-128.13
X56.4Y-130.67
X57.5Y-40.5
X57.67Y-44.0
X57.67Y-46.54
X57.67Y-49.08
X57.67Y-66.86
X57.67Y-69.4
X57.67Y-71.94
X57.67Y-74.0
X57.67Y-76.54
X57.67Y-79.08
X57.67Y-94.32
X57.67Y-96.86
X57.67Y-99.4
X57.67Y-101.94
X57.67Y-104.0
X57.67Y-106.54
X57.67Y-109.08
X57.67Y-124.32
X57.67Y-126.86
X57.67Y-129.4
X57.67Y-131.94
X57.687Y-53.765
X57.717Y-64.465
X57.75Y-83.75
X58.375Y-113.375
X58.94Y-45.27
X58.94Y-47.81
X58.94Y-50.35
X58.94Y-65.59
X58.94Y-68.13
X58.94Y-70.67
X58.94Y-75.27
X58.94Y-77.81
X58.94Y-80.35
X58.94Y-95.59
X58.94Y-98.13
X58.94Y-100.67
X58.94Y-105.27
X58.94Y-107.81
X58.94Y-110.35
X58.94Y-125.59
X58.94Y-128.13
X58.94Y-130.67
X60.0Y-87.75
X60.0Y-116.75
X60.21Y-44.0
X60.21Y-46.54
X60.21Y-49.08
X60.21Y-74.0
X60.21Y-76.54
X60.21Y-79.08
X60.21Y-104.0
X60.21Y-106.54
X60.21Y-109.08
X60.25Y-56.75
X61.387Y-53.924
X61.387Y-83.924
X61.387Y-113.924
X61.48Y-45.27
X61.48Y-47.81
X61.48Y-50.35
X61.48Y-75.27
X61.48Y-77.81
X61.48Y-80.35
X61.48Y-105.27
X61.48Y-107.81
X61.48Y-110.35
X62.0Y-64.29
X62.0Y-66.83
X62.0Y-69.37
X62.0Y-71.91
X62.0Y-94.29
X62.0Y-96.83
X62.0Y-99.37
X62.0Y-101.91
X62.0Y-124.29
X62.0Y-126.83
X62.0Y-129.37
X62.75Y-46.54
X62.75Y-49.08
X62.75Y-76.54
X62.75Y-79.08
X62.75Y-106.54
X62.75Y-109.08
X63.0Y-39.0
X63.098Y-50.41
X63.098Y-80.41
X63.098Y-110.41
X64.54Y-66.83
X64.54Y-69.37
X64.54Y-96.83
X64.54Y-99.37
X64.54Y-126.83
X64.54Y-129.37
X64.99Y-45.57
X64.99Y-48.11
X64.99Y-50.65
X64.99Y-53.19
X64.99Y-55.73
X64.99Y-75.57
X64.99Y-78.11
X64.99Y-80.65
X64.99Y-83.19
X64.99Y-85.73
X64.99Y-105.57
X64.99Y-108.11
X64.99Y-110.65
X64.99Y-113.19
X64.99Y-115.73
X65.81Y-63.02
X65.81Y-65.56
X65.81Y-93.02
X65.81Y-95.56
X65.81Y-123.02
X65.81Y-125.56
X66.23Y-30.48
X66.23Y-33.02
X66.26Y-46.84
X66.26Y-49.38
X66.26Y-51.92
X66.26Y-54.46
X66.26Y-57.0
X66.26Y-76.84
X66.26Y-79.38
X66.26Y-81.92
X66.26Y-84.46
X66.26Y-87.0
X66.26Y-106.84
X66.26Y-109.38
X66.26Y-111.92
X66.26Y-114.46
X66.26Y-117.0
X67.08Y-61.75
X67.08Y-64.29
X67.08Y-66.83
X67.08Y-69.37
X67.08Y-71.91
X67.08Y-91.75
X67.08Y-94.29
X67.08Y-96.83
X67.08Y-99.37
X67.08Y-101.91
X67.08Y-121.75
X67.08Y-124.29
X67.08Y-126.83
X67.08Y-129.37
X67.53Y-45.57
X67.53Y-48.11
X67.53Y-50.65
X67.53Y-53.19
X67.53Y-55.73
X67.53Y-75.57
X67.53Y-78.11
X67.53Y-80.65
X67.53Y-83.19
X67.53Y-85.73
X67.53Y-105.57
X67.53Y-108.11
X67.53Y-110.65
X67.53Y-113.19
X67.53Y-115.73
X68.25Y-59.33
X68.25Y-89.33
X68.25Y-119.33
X68.35Y-63.02
X68.35Y-65.56
X68.35Y-93.02
X68.35Y-95.56
X68.35Y-123.02
X68.35Y-125.56
X68.77Y-27.94
X68.77Y-30.48
X68.77Y-33.02
X68.77Y-35.56
X68.8Y-46.84
X68.8Y-49.38
X68.8Y-51.92
X68.8Y-54.46
X68.8Y-57.0
X68.8Y-76.84
X68.8Y-79.38
X68.8Y-81.92
X68.8Y-84.46
X68.8Y-87.0
X68.8Y-106.84
X68.8Y-109.38
X68.8Y-111.92
X68.8Y-114.46
X68.8Y-117.0
X69.62Y-61.75
X69.62Y-64.29
X69.62Y-66.83
X69.62Y-69.37
X69.62Y-71.91
X69.62Y-91.75
X69.62Y-94.29
X69.62Y-96.83
X69.62Y-99.37
X69.62Y-101.91
X69.62Y-121.75
X69.62Y-124.29
X69.62Y-126.83
X69.62Y-129.37
X70.07Y-45.57
X70.07Y-48.11
X70.07Y-50.65
X70.07Y-53.19
X70.07Y-55.73
X70.07Y-58.27
X70.07Y-75.57
X70.07Y-78.11
X70.07Y-80.65
X70.07Y-83.19
X70.07Y-85.73
X70.07Y-88.27
X70.07Y-105.57
X70.07Y-108.11
X70.07Y-110.65
X70.07Y-113.19
X70.07Y-115.73
X70.07Y-118.27
X70.312Y-40.238
X70.89Y-63.02
X70.89Y-65.56
X70.89Y-93.02
X70.89Y-95.56
X70.89Y-123.02
X70.89Y-125.56
X71.31Y-27.94
X71.31Y-30.48
X71.31Y-33.02
X71.31Y-35.56
X71.31Y-38.1
X71.34Y-46.84
X71.34Y-49.38
X71.34Y-51.92
X71.34Y-54.46
X71.34Y-57.0
X71.34Y-76.84
X71.34Y-79.38
X71.34Y-81.92
X71.34Y-84.46
X71.34Y-87.0
X71.34Y-106.84
X71.34Y-109.38
X71.34Y-111.92
X71.34Y-114.46
X71.34Y-117.0
X72.16Y-61.75
X72.16Y-64.29
X72.16Y-66.83
X72.16Y-69.37
X72.16Y-91.75
X72.16Y-94.29
X72.16Y-96.83
X72.16Y-99.37
X72.16Y-121.75
X72.16Y-124.29
X72.16Y-126.83
X72.16Y-129.37
X72.61Y-48.11
X72.61Y-50.65
X72.61Y-53.19
X72.61Y-55.73
X72.61Y-58.27
X72.61Y-78.11
X72.61Y-80.65
X72.61Y-83.19
X72.61Y-85.73
X72.61Y-88.27
X72.61Y-108.11
X72.61Y-110.65
X72.61Y-113.19
X72.61Y-115.73
X72.61Y-118.27
X73.43Y-63.02
X73.43Y-65.56
X73.43Y-93.02
X73.43Y-95.56
X73.43Y-123.02
X73.43Y-125.56
X73.85Y-27.94
X73.85Y-30.48
X73.85Y-33.02
X73.85Y-35.56
X73.85Y-38.1
X73.88Y-57.0
X73.88Y-87.0
X73.88Y-117.0
X74.7Y-61.75
X74.7Y-64.29
X74.7Y-66.83
X74.7Y-69.37
X74.7Y-91.75
X74.7Y-94.29
X74.7Y-96.83
X74.7Y-99.37
X74.7Y-121.75
X74.7Y-124.29
X74.7Y-126.83
X74.7Y-129.37
X75.15Y-45.57
X75.15Y-48.11
X75.15Y-50.65
X75.15Y-53.19
X75.15Y-55.73
X75.15Y-58.27
X75.15Y-75.57
X75.15Y-78.11
X75.15Y-80.65
X75.15Y-83.19
X75.15Y-85.73
X75.15Y-88.27
X75.15Y-105.57
X75.15Y-108.11
X75.15Y-110.65
X75.15Y-113.19
X75.15Y-115.73
X75.15Y-118.27
X75.97Y-63.02
X75.97Y-65.56
X75.97Y-93.02
X75.97Y-95.56
X75.97Y-123.02
X75.97Y-125.56
X76.42Y-57.0
X76.42Y-87.0
X76.42Y-117.0
X77.24Y-61.75
X77.24Y-64.29
X77.24Y-66.83
X77.24Y-69.37
X77.24Y-71.91
X77.24Y-91.75
X77.24Y-94.29
X77.24Y-96.83
X77.24Y-99.37
X77.24Y-101.91
X77.24Y-121.75
X77.24Y-124.29
X77.24Y-126.83
X77.24Y-129.37
X77.69Y-45.57
X77.69Y-48.11
X77.69Y-50.65
X77.69Y-53.19
X77.69Y-55.73
X77.69Y-75.57
X77.69Y-78.11
X77.69Y-80.65
X77.69Y-83.19
X77.69Y-85.73
X77.69Y-105.57
X77.69Y-108.11
X77.69Y-110.65
X77.69Y-113.19
X77.69Y-115.73
X77.75Y-57.75
X77.75Y-87.75
X77.75Y-117.75
X78.51Y-63.02
X78.51Y-65.56
X78.51Y-93.02
X78.51Y-95.56
X78.51Y-123.02
X78.51Y-125.56
X78.96Y-57.0
X78.96Y-87.0
X78.96Y-117.0
X79.78Y-64.29
X79.78Y-66.83
X79.78Y-69.37
X79.78Y-71.91
X79.78Y-94.29
X79.78Y-96.83
X79.78Y-99.37
X79.78Y-101.91
X79.78Y-124.29
X79.78Y-126.83
X79.78Y-129.37
X80.23Y-45.57
X80.23Y-48.11
X80.23Y-50.65
X80.23Y-53.19
X80.23Y-55.73
X80.23Y-75.57
X80.23Y-78.11
X80.23Y-80.65
X80.23Y-83.19
X80.23Y-85.73
X80.23Y-105.57
X80.23Y-108.11
X80.23Y-110.65
X80.23Y-113.19
X80.23Y-115.73
X81.28Y-106.861
X81.291Y-29.476
X81.291Y-32.016
X81.291Y-34.556
X81.291Y-37.096
X81.5Y-46.84
X81.5Y-49.38
X81.5Y-51.92
X81.5Y-54.46
X81.5Y-57.0
X81.5Y-76.84
X81.5Y-79.38
X81.5Y-81.92
X81.5Y-84.46
X81.5Y-87.0
X81.5Y-109.38
X81.5Y-111.92
X81.5Y-114.46
X81.5Y-117.0
X82.32Y-64.29
X82.32Y-66.83
X82.32Y-69.37
X82.32Y-71.91
X82.32Y-94.29
X82.32Y-96.83
X82.32Y-99.37
X82.32Y-101.91
X82.32Y-124.29
X82.32Y-126.83
X82.32Y-129.37
X82.83Y-57.75
X82.83Y-87.75
X83.0Y-44.2
X83.367Y-104.297
X83.4Y-74.4
X83.831Y-29.476
X83.831Y-32.016
X83.831Y-34.556
X83.831Y-37.096
X84.5Y-44.25
X84.5Y-73.75
X84.503Y-104.498
X84.86Y-64.29
X84.86Y-66.83
X84.86Y-69.37
X84.86Y-71.91
X84.86Y-94.29
X84.86Y-96.83
X84.86Y-99.37
X84.86Y-124.29
X84.86Y-126.83
X84.86Y-131.91
X85.101Y-30.746
X85.101Y-33.286
X85.101Y-35.826
X85.75Y-74.25
X85.75Y-104.25
X86.0Y-44.25
X86.371Y-29.476
X86.371Y-32.016
X86.371Y-34.556
X86.371Y-37.096
X87.4Y-64.29
X87.4Y-66.83
X87.4Y-69.37
X87.4Y-71.91
X87.4Y-94.29
X87.4Y-96.83
X87.4Y-99.37
X87.4Y-101.91
X87.4Y-124.29
X87.4Y-126.83
X87.4Y-129.37
X87.4Y-131.91
X87.641Y-30.746
X87.641Y-33.286
X87.641Y-35.826
X88.0Y-45.0
X88.0Y-47.54
X88.0Y-50.08
X88.0Y-52.62
X88.0Y-55.16
X88.0Y-57.7
X88.0Y-75.0
X88.0Y-77.54
X88.0Y-80.08
X88.0Y-82.62
X88.0Y-85.16
X88.0Y-87.7
X88.0Y-105.0
X88.0Y-107.54
X88.0Y-110.08
X88.0Y-112.62
X88.0Y-115.16
X88.0Y-117.7
X88.911Y-29.476
X88.911Y-37.096
X89.27Y-58.97
X89.27Y-88.97
X89.27Y-118.97
X89.94Y-61.75
X89.94Y-64.29
X89.94Y-66.83
X89.94Y-69.37
X89.94Y-71.91
X89.94Y-91.75
X89.94Y-94.29
X89.94Y-96.83
X89.94Y-99.37
X89.94Y-101.91
X89.94Y-121.75
X89.94Y-124.29
X89.94Y-126.83
X89.94Y-129.37
X89.94Y-131.91
X90.54Y-45.0
X90.54Y-47.54
X90.54Y-50.08
X90.54Y-52.62
X90.54Y-55.16
X90.54Y-75.0
X90.54Y-77.54
X90.54Y-80.08
X90.54Y-82.62
X90.54Y-85.16
X90.54Y-105.0
X90.54Y-107.54
X90.54Y-110.08
X90.54Y-112.62
X90.54Y-115.16
X91.75Y-29.46
X91.75Y-32.0
X91.75Y-34.54
X91.75Y-37.08
X91.81Y-48.81
X91.81Y-51.35
X91.81Y-53.89
X91.81Y-56.43
X91.81Y-58.97
X91.81Y-78.81
X91.81Y-81.35
X91.81Y-83.89
X91.81Y-86.43
X91.81Y-88.97
X91.81Y-108.81
X91.81Y-111.35
X91.81Y-113.89
X91.81Y-116.43
X91.81Y-118.97
X92.48Y-61.75
X92.48Y-64.29
X92.48Y-66.83
X92.48Y-69.37
X92.48Y-71.91
X92.48Y-91.75
X92.48Y-94.29
X92.48Y-96.83
X92.48Y-99.37
X92.48Y-101.91
X92.48Y-121.75
X92.48Y-124.29
X92.48Y-126.83
X92.48Y-129.37
X92.48Y-131.91
X93.02Y-30.73
X93.02Y-33.27
X93.02Y-35.81
X93.08Y-45.0
X93.08Y-47.54
X93.08Y-50.08
X93.08Y-52.62
X93.08Y-55.16
X93.08Y-75.0
X93.08Y-77.54
X93.08Y-80.08
X93.08Y-82.62
X93.08Y-85.16
X93.08Y-105.0
X93.08Y-107.54
X93.08Y-110.08
X93.08Y-112.62
X93.08Y-115.16
X94.29Y-29.46
X94.29Y-32.0
X94.29Y-34.54
X94.29Y-37.08
X94.35Y-48.81
X94.35Y-51.35
X94.35Y-53.89
X94.35Y-56.43
X94.35Y-58.97
X94.35Y-78.81
X94.35Y-81.35
X94.35Y-83.89
X94.35Y-86.43
X94.35Y-88.97
X94.35Y-108.81
X94.35Y-111.35
X94.35Y-113.89
X94.35Y-116.43
X94.35Y-118.97
X95.02Y-61.75
X95.02Y-64.29
X95.02Y-66.83
X95.02Y-69.37
X95.02Y-71.91
X95.02Y-91.75
X95.02Y-94.29
X95.02Y-96.83
X95.02Y-99.37
X95.02Y-101.91
X95.02Y-121.75
X95.02Y-124.29
X95.02Y-126.83
X95.02Y-129.37
X95.02Y-131.91
X95.56Y-30.73
X95.56Y-33.27
X95.56Y-35.81
X95.62Y-45.0
X95.62Y-47.54
X95.62Y-50.08
X95.62Y-52.62
X95.62Y-55.16
X95.62Y-75.0
X95.62Y-77.54
X95.62Y-80.08
X95.62Y-82.62
X95.62Y-85.16
X95.62Y-105.0
X95.62Y-107.54
X95.62Y-110.08
X95.62Y-112.62
X95.62Y-115.16
X96.83Y-29.46
X96.83Y-32.0
X96.83Y-34.54
X96.83Y-37.08
X96.89Y-48.81
X96.89Y-51.35
X96.89Y-53.89
X96.89Y-56.43
X96.89Y-58.97
X96.89Y-78.81
X96.89Y-81.35
X96.89Y-83.89
X96.89Y-86.43
X96.89Y-88.97
X96.89Y-108.81
X96.89Y-111.35
X96.89Y-113.89
X96.89Y-116.43
X96.89Y-118.97
X97.56Y-61.75
X97.56Y-64.29
X97.56Y-66.83
X97.56Y-69.37
X97.56Y-71.91
X97.56Y-91.75
X97.56Y-94.29
X97.56Y-96.83
X97.56Y-99.37
X97.56Y-101.91
X97.56Y-121.75
X97.56Y-124.29
X97.56Y-126.83
X97.56Y-129.37
X97.56Y-131.91
X98.16Y-45.0
X98.16Y-47.54
X98.16Y-50.08
X98.16Y-52.62
X98.16Y-55.16
X98.16Y-75.0
X98.16Y-77.54
X98.16Y-80.08
X98.16Y-82.62
X98.16Y-85.16
X98.16Y-105.0
X98.16Y-107.54
X98.16Y-110.08
X98.16Y-112.62
X98.16Y-115.16
X99.37Y-29.46
X99.37Y-32.0
X99.37Y-34.54
X99.37Y-37.08
X99.43Y-58.97
X99.43Y-88.97
X99.43Y-118.97
X100.7Y-45.0
X100.7Y-47.54
X100.7Y-50.08
X100.7Y-52.62
X100.7Y-55.16
X100.7Y-57.7
X100.7Y-75.0
X100.7Y-77.54
X100.7Y-80.08
X100.7Y-82.62
X100.7Y-85.16
X100.7Y-87.7
X100.7Y-105.0
X100.7Y-107.54
X100.7Y-110.08
X100.7Y-112.62
X100.7Y-115.16
X100.7Y-117.7
X100.9Y-63.11
X100.9Y-65.65
X100.9Y-68.19
X102.17Y-61.84
X103.19Y-51.63
X103.19Y-54.17
X103.44Y-63.11
X103.44Y-65.65
X103.44Y-68.19
X104.46Y-50.36
X104.46Y-52.9
X104.46Y-55.44
X104.71Y-61.84
X104.71Y-64.38
X105.73Y-51.63
X105.73Y-54.17
X105.98Y-63.11
X105.98Y-65.65
X105.98Y-68.19
X106.5Y-57.0
X107.0Y-40.2
X107.0Y-42.74
X107.0Y-45.28
X107.0Y-50.36
X107.0Y-52.9
X107.25Y-31.75
X107.25Y-61.84
X107.25Y-64.38
X107.25Y-69.46
X107.25Y-72.0
X107.25Y-114.618
X107.25Y-117.158
X107.25Y-128.67
X107.25Y-131.21
X108.0Y-29.5
X108.25Y-34.25
X108.27Y-38.93
X108.27Y-41.47
X108.27Y-44.01
X108.27Y-46.55
X108.27Y-51.63
X108.52Y-63.11
X108.52Y-65.65
X108.52Y-68.19
X108.52Y-70.73
X108.52Y-73.27
X108.52Y-113.348
X108.52Y-115.888
X108.52Y-118.428
X108.52Y-127.4
X108.52Y-129.94
X108.52Y-132.48
X109.54Y-40.2
X109.54Y-42.74
X109.54Y-45.28
X109.54Y-50.36
X109.79Y-69.46
X109.79Y-72.0
X109.79Y-83.513
X109.79Y-114.618
X109.79Y-117.158
X109.79Y-128.67
X109.79Y-131.21
X110.5Y-28.5
X110.5Y-35.0
X110.75Y-54.0
X110.75Y-58.371
X110.81Y-38.93
X110.81Y-41.47
X110.81Y-44.01
X110.81Y-46.55
X111.06Y-63.11
X111.06Y-65.65
X111.06Y-68.19
X111.06Y-70.73
X111.06Y-73.27
X111.06Y-75.81
X111.06Y-79.703
X111.06Y-82.243
X111.06Y-84.783
X111.06Y-110.808
X111.06Y-113.348
X111.06Y-115.888
X111.06Y-118.428
X111.06Y-120.968
X111.06Y-124.86
X111.06Y-127.4
X111.06Y-129.94
X111.06Y-132.48
X112.08Y-40.2
X112.08Y-42.74
X112.08Y-45.28
X112.5Y-55.0
X112.5Y-59.25
X112.75Y-34.25
X113.0Y-29.5
X113.35Y-38.93
X113.35Y-41.47
X113.35Y-44.01
X113.35Y-46.55
X113.6Y-63.11
X113.6Y-65.65
X113.6Y-68.19
X113.6Y-73.27
X113.6Y-75.81
X113.6Y-82.243
X113.6Y-87.323
X113.6Y-89.863
X113.6Y-110.808
X113.6Y-113.348
X113.6Y-118.428
X113.6Y-120.968
X113.6Y-124.86
X113.6Y-127.4
X113.6Y-132.48
X113.75Y-31.75
X114.384Y-53.338
X114.402Y-57.752
X114.62Y-40.2
X114.62Y-42.74
X114.62Y-45.28
X115.89Y-41.47
X115.89Y-44.01
X116.486Y-58.069
X116.577Y-54.032
X117.15Y-65.65
X117.15Y-68.19
X117.15Y-73.27
X117.15Y-75.81
X117.15Y-79.703
X117.15Y-82.243
X117.15Y-87.323
X117.15Y-89.863
X117.15Y-110.808
X117.15Y-113.348
X117.15Y-118.428
X117.15Y-120.968
X117.15Y-124.86
X117.15Y-127.4
X117.15Y-132.48
X119.69Y-65.65
X119.69Y-68.19
X119.69Y-73.27
X119.69Y-75.81
X119.69Y-79.703
X119.69Y-82.243
X119.69Y-87.323
X119.69Y-89.863
X119.69Y-110.808
X119.69Y-113.348
X119.69Y-118.428
X119.69Y-120.968
X119.69Y-124.86
X119.69Y-127.4
X119.69Y-132.48
X120.96Y-69.46
X120.96Y-72.0
X120.96Y-83.513
X120.96Y-86.053
X120.96Y-114.618
X120.96Y-117.158
X120.96Y-128.67
X120.96Y-131.21
X122.23Y-68.19
X122.23Y-70.73
X122.23Y-73.27
X122.23Y-82.243
X122.23Y-84.783
X122.23Y-87.323
X122.23Y-113.348
X122.23Y-115.888
X122.23Y-118.428
X122.23Y-127.4
X122.23Y-129.94
X122.23Y-132.48
X123.5Y-69.46
X123.5Y-72.0
X123.5Y-83.513
X123.5Y-86.053
X123.5Y-114.618
X123.5Y-117.158
X123.5Y-128.67
X123.5Y-131.21
T4
X34.5Y-34.75
X34.5Y-36.75
X34.5Y-38.75
X54.0Y-55.29
X54.0Y-85.29
X54.0Y-115.29
X57.25Y-62.25
X57.25Y-92.25
X57.25Y-122.25
X62.33Y-62.25
X62.33Y-92.25
X62.33Y-122.25
X73.5Y-42.467
X73.5Y-72.467
X73.5Y-102.467
X81.0Y-59.21
X81.0Y-89.21
X81.0Y-119.21
T5
X33.725Y-64.691
X33.725Y-67.231
X33.725Y-69.771
X33.725Y-72.311
X33.725Y-78.661
X33.725Y-81.201
X33.725Y-83.741
X33.725Y-86.281
X33.725Y-88.821
X33.725Y-91.361
X33.725Y-93.901
X33.725Y-97.711
X33.725Y-100.251
X33.725Y-102.791
X33.725Y-105.331
X33.725Y-107.871
X33.725Y-110.411
X33.725Y-112.951
X36.265Y-64.691
X36.265Y-67.231
X36.265Y-69.771
X36.265Y-72.311
X36.265Y-78.661
X36.265Y-81.201
X36.265Y-83.741
X36.265Y-86.281
X36.265Y-88.821
X36.265Y-91.361
X36.265Y-93.901
X36.265Y-97.711
X36.265Y-100.251
X36.265Y-102.791
X36.265Y-105.331
X36.265Y-107.871
X36.265Y-110.411
X36.265Y-112.951
X118.46Y-55.485
X118.46Y-58.025
X121.0Y-55.485
X121.0Y-58.025
T6
X113.176Y-70.75
X113.176Y-84.803
X113.176Y-115.908
X113.176Y-129.96
X118.176Y-70.75
X118.176Y-84.803
X118.176Y-115.908
X118.176Y-129.96
T7
X35.0Y-54.5
X43.5Y-83.25
X51.75Y-68.75
X51.75Y-98.25
X54.0Y-52.75
X54.0Y-82.75
X54.0Y-112.75
X59.79Y-62.25
X59.79Y-92.25
X59.79Y-122.25
X73.5Y-45.007
X73.5Y-75.007
X73.5Y-105.007
X77.25Y-25.5
X81.0Y-61.75
X81.0Y-91.75
X81.0Y-121.75
X115.55Y-95.655
X115.55Y-100.655
X115.55Y-105.655
T8
X34.45Y-27.118
X34.45Y-141.538
X119.394Y-27.118
X119.394Y-141.538
T9
X62.0Y-139.75
X110.5Y-31.75
T3
G00X43.93Y-24.65
M15
G01X43.93Y-23.85
M16
G05
G00X43.93Y-28.98
M15
G01X43.93Y-27.88
M16
G05
G00X52.57Y-24.65
M15
G01X52.57Y-23.85
M16
G05
G00X52.57Y-28.98
M15
G01X52.57Y-27.88
M16
G05
M30
