G04 #@! TF.GenerationSoftware,KiCad,Pcbnew,9.0.3*
G04 #@! TF.CreationDate,2026-02-18T20:02:49+00:00*
G04 #@! TF.ProjectId,nevb_mtr1_i56_1,6e657662-5f6d-4747-9231-5f6935365f31,01*
G04 #@! TF.SameCoordinates,Original*
G04 #@! TF.FileFunction,Paste,Top*
G04 #@! TF.FilePolarity,Positive*
%FSLAX46Y46*%
G04 Gerber Fmt 4.6, Leading zero omitted, Abs format (unit mm)*
G04 Created by KiCad (PCBNEW 9.0.3) date 2026-02-18 20:02:49*
%MOMM*%
%LPD*%
G01*
G04 APERTURE LIST*
G04 Aperture macros list*
%AMRoundRect*
0 Rectangle with rounded corners*
0 $1 Rounding radius*
0 $2 $3 $4 $5 $6 $7 $8 $9 X,Y pos of 4 corners*
0 Add a 4 corners polygon primitive as box body*
4,1,4,$2,$3,$4,$5,$6,$7,$8,$9,$2,$3,0*
0 Add four circle primitives for the rounded corners*
1,1,$1+$1,$2,$3*
1,1,$1+$1,$4,$5*
1,1,$1+$1,$6,$7*
1,1,$1+$1,$8,$9*
0 Add four rect primitives between the rounded corners*
20,1,$1+$1,$2,$3,$4,$5,0*
20,1,$1+$1,$4,$5,$6,$7,0*
20,1,$1+$1,$6,$7,$8,$9,0*
20,1,$1+$1,$8,$9,$2,$3,0*%
G04 Aperture macros list end*
%ADD10C,0.300000*%
%ADD11RoundRect,0.237500X-0.237500X0.250000X-0.237500X-0.250000X0.237500X-0.250000X0.237500X0.250000X0*%
%ADD12RoundRect,0.150000X-0.150000X0.512500X-0.150000X-0.512500X0.150000X-0.512500X0.150000X0.512500X0*%
%ADD13R,0.820000X0.820000*%
%ADD14R,0.900000X1.200000*%
%ADD15R,0.800000X1.850000*%
%ADD16RoundRect,0.237500X0.237500X-0.300000X0.237500X0.300000X-0.237500X0.300000X-0.237500X-0.300000X0*%
%ADD17RoundRect,0.250000X-0.450000X0.350000X-0.450000X-0.350000X0.450000X-0.350000X0.450000X0.350000X0*%
%ADD18RoundRect,0.237500X0.250000X0.237500X-0.250000X0.237500X-0.250000X-0.237500X0.250000X-0.237500X0*%
%ADD19RoundRect,0.237500X0.300000X0.237500X-0.300000X0.237500X-0.300000X-0.237500X0.300000X-0.237500X0*%
%ADD20RoundRect,0.237500X-0.300000X-0.237500X0.300000X-0.237500X0.300000X0.237500X-0.300000X0.237500X0*%
%ADD21RoundRect,0.250000X0.337500X0.475000X-0.337500X0.475000X-0.337500X-0.475000X0.337500X-0.475000X0*%
%ADD22RoundRect,0.250000X-0.250000X0.250000X-0.250000X-0.250000X0.250000X-0.250000X0.250000X0.250000X0*%
%ADD23RoundRect,0.250000X-0.350000X-0.450000X0.350000X-0.450000X0.350000X0.450000X-0.350000X0.450000X0*%
%ADD24RoundRect,0.250000X-0.250000X-0.250000X0.250000X-0.250000X0.250000X0.250000X-0.250000X0.250000X0*%
%ADD25RoundRect,0.237500X-0.250000X-0.237500X0.250000X-0.237500X0.250000X0.237500X-0.250000X0.237500X0*%
%ADD26R,0.800000X0.500000*%
%ADD27RoundRect,0.107500X0.442500X0.107500X-0.442500X0.107500X-0.442500X-0.107500X0.442500X-0.107500X0*%
%ADD28R,1.050000X0.600000*%
%ADD29R,0.600000X0.900000*%
%ADD30R,0.900000X0.600000*%
%ADD31R,0.600000X1.050000*%
%ADD32RoundRect,0.250000X0.412500X0.650000X-0.412500X0.650000X-0.412500X-0.650000X0.412500X-0.650000X0*%
%ADD33RoundRect,0.250000X-0.450000X-0.800000X0.450000X-0.800000X0.450000X0.800000X-0.450000X0.800000X0*%
%ADD34C,9.500000*%
%ADD35RoundRect,0.237500X0.237500X-0.250000X0.237500X0.250000X-0.237500X0.250000X-0.237500X-0.250000X0*%
%ADD36RoundRect,0.237500X-0.237500X0.300000X-0.237500X-0.300000X0.237500X-0.300000X0.237500X0.300000X0*%
%ADD37RoundRect,0.145000X0.145000X0.480000X-0.145000X0.480000X-0.145000X-0.480000X0.145000X-0.480000X0*%
%ADD38RoundRect,0.070000X0.070000X0.555000X-0.070000X0.555000X-0.070000X-0.555000X0.070000X-0.555000X0*%
%ADD39O,1.000000X2.100000*%
%ADD40O,1.000000X1.800000*%
%ADD41RoundRect,0.249999X-1.425001X0.450001X-1.425001X-0.450001X1.425001X-0.450001X1.425001X0.450001X0*%
%ADD42RoundRect,0.250000X1.100000X-0.412500X1.100000X0.412500X-1.100000X0.412500X-1.100000X-0.412500X0*%
%ADD43RoundRect,0.250000X0.475000X-0.337500X0.475000X0.337500X-0.475000X0.337500X-0.475000X-0.337500X0*%
%ADD44RoundRect,0.249999X-0.450001X-1.425001X0.450001X-1.425001X0.450001X1.425001X-0.450001X1.425001X0*%
%ADD45RoundRect,0.250000X-1.075000X0.400000X-1.075000X-0.400000X1.075000X-0.400000X1.075000X0.400000X0*%
%ADD46RoundRect,0.250001X-0.624999X0.462499X-0.624999X-0.462499X0.624999X-0.462499X0.624999X0.462499X0*%
%ADD47R,0.500000X0.300000*%
%ADD48R,0.700000X0.950000*%
%ADD49RoundRect,0.250001X-0.462499X-0.624999X0.462499X-0.624999X0.462499X0.624999X-0.462499X0.624999X0*%
%ADD50RoundRect,0.250000X-0.295000X0.295000X-0.295000X-0.295000X0.295000X-0.295000X0.295000X0.295000X0*%
%ADD51RoundRect,0.062500X-0.062500X0.350000X-0.062500X-0.350000X0.062500X-0.350000X0.062500X0.350000X0*%
%ADD52RoundRect,0.062500X-0.350000X0.062500X-0.350000X-0.062500X0.350000X-0.062500X0.350000X0.062500X0*%
%ADD53R,1.200000X1.200000*%
G04 APERTURE END LIST*
D10*
X28233082Y-167689400D02*
X28447368Y-167760828D01*
X28447368Y-167760828D02*
X28804510Y-167760828D01*
X28804510Y-167760828D02*
X28947368Y-167689400D01*
X28947368Y-167689400D02*
X29018796Y-167617971D01*
X29018796Y-167617971D02*
X29090225Y-167475114D01*
X29090225Y-167475114D02*
X29090225Y-167332257D01*
X29090225Y-167332257D02*
X29018796Y-167189400D01*
X29018796Y-167189400D02*
X28947368Y-167117971D01*
X28947368Y-167117971D02*
X28804510Y-167046542D01*
X28804510Y-167046542D02*
X28518796Y-166975114D01*
X28518796Y-166975114D02*
X28375939Y-166903685D01*
X28375939Y-166903685D02*
X28304510Y-166832257D01*
X28304510Y-166832257D02*
X28233082Y-166689400D01*
X28233082Y-166689400D02*
X28233082Y-166546542D01*
X28233082Y-166546542D02*
X28304510Y-166403685D01*
X28304510Y-166403685D02*
X28375939Y-166332257D01*
X28375939Y-166332257D02*
X28518796Y-166260828D01*
X28518796Y-166260828D02*
X28875939Y-166260828D01*
X28875939Y-166260828D02*
X29090225Y-166332257D01*
X29947367Y-167760828D02*
X29804510Y-167689400D01*
X29804510Y-167689400D02*
X29733081Y-167617971D01*
X29733081Y-167617971D02*
X29661653Y-167475114D01*
X29661653Y-167475114D02*
X29661653Y-167046542D01*
X29661653Y-167046542D02*
X29733081Y-166903685D01*
X29733081Y-166903685D02*
X29804510Y-166832257D01*
X29804510Y-166832257D02*
X29947367Y-166760828D01*
X29947367Y-166760828D02*
X30161653Y-166760828D01*
X30161653Y-166760828D02*
X30304510Y-166832257D01*
X30304510Y-166832257D02*
X30375939Y-166903685D01*
X30375939Y-166903685D02*
X30447367Y-167046542D01*
X30447367Y-167046542D02*
X30447367Y-167475114D01*
X30447367Y-167475114D02*
X30375939Y-167617971D01*
X30375939Y-167617971D02*
X30304510Y-167689400D01*
X30304510Y-167689400D02*
X30161653Y-167760828D01*
X30161653Y-167760828D02*
X29947367Y-167760828D01*
X31304510Y-167760828D02*
X31161653Y-167689400D01*
X31161653Y-167689400D02*
X31090224Y-167546542D01*
X31090224Y-167546542D02*
X31090224Y-166260828D01*
X32518796Y-167760828D02*
X32518796Y-166260828D01*
X32518796Y-167689400D02*
X32375938Y-167760828D01*
X32375938Y-167760828D02*
X32090224Y-167760828D01*
X32090224Y-167760828D02*
X31947367Y-167689400D01*
X31947367Y-167689400D02*
X31875938Y-167617971D01*
X31875938Y-167617971D02*
X31804510Y-167475114D01*
X31804510Y-167475114D02*
X31804510Y-167046542D01*
X31804510Y-167046542D02*
X31875938Y-166903685D01*
X31875938Y-166903685D02*
X31947367Y-166832257D01*
X31947367Y-166832257D02*
X32090224Y-166760828D01*
X32090224Y-166760828D02*
X32375938Y-166760828D01*
X32375938Y-166760828D02*
X32518796Y-166832257D01*
X33804510Y-167689400D02*
X33661653Y-167760828D01*
X33661653Y-167760828D02*
X33375939Y-167760828D01*
X33375939Y-167760828D02*
X33233081Y-167689400D01*
X33233081Y-167689400D02*
X33161653Y-167546542D01*
X33161653Y-167546542D02*
X33161653Y-166975114D01*
X33161653Y-166975114D02*
X33233081Y-166832257D01*
X33233081Y-166832257D02*
X33375939Y-166760828D01*
X33375939Y-166760828D02*
X33661653Y-166760828D01*
X33661653Y-166760828D02*
X33804510Y-166832257D01*
X33804510Y-166832257D02*
X33875939Y-166975114D01*
X33875939Y-166975114D02*
X33875939Y-167117971D01*
X33875939Y-167117971D02*
X33161653Y-167260828D01*
X34518795Y-167760828D02*
X34518795Y-166760828D01*
X34518795Y-167046542D02*
X34590224Y-166903685D01*
X34590224Y-166903685D02*
X34661653Y-166832257D01*
X34661653Y-166832257D02*
X34804510Y-166760828D01*
X34804510Y-166760828D02*
X34947367Y-166760828D01*
X36590223Y-167760828D02*
X36590223Y-166260828D01*
X36590223Y-166260828D02*
X37161652Y-166260828D01*
X37161652Y-166260828D02*
X37304509Y-166332257D01*
X37304509Y-166332257D02*
X37375938Y-166403685D01*
X37375938Y-166403685D02*
X37447366Y-166546542D01*
X37447366Y-166546542D02*
X37447366Y-166760828D01*
X37447366Y-166760828D02*
X37375938Y-166903685D01*
X37375938Y-166903685D02*
X37304509Y-166975114D01*
X37304509Y-166975114D02*
X37161652Y-167046542D01*
X37161652Y-167046542D02*
X36590223Y-167046542D01*
X38733081Y-167760828D02*
X38733081Y-166975114D01*
X38733081Y-166975114D02*
X38661652Y-166832257D01*
X38661652Y-166832257D02*
X38518795Y-166760828D01*
X38518795Y-166760828D02*
X38233081Y-166760828D01*
X38233081Y-166760828D02*
X38090223Y-166832257D01*
X38733081Y-167689400D02*
X38590223Y-167760828D01*
X38590223Y-167760828D02*
X38233081Y-167760828D01*
X38233081Y-167760828D02*
X38090223Y-167689400D01*
X38090223Y-167689400D02*
X38018795Y-167546542D01*
X38018795Y-167546542D02*
X38018795Y-167403685D01*
X38018795Y-167403685D02*
X38090223Y-167260828D01*
X38090223Y-167260828D02*
X38233081Y-167189400D01*
X38233081Y-167189400D02*
X38590223Y-167189400D01*
X38590223Y-167189400D02*
X38733081Y-167117971D01*
X39375938Y-167689400D02*
X39518795Y-167760828D01*
X39518795Y-167760828D02*
X39804509Y-167760828D01*
X39804509Y-167760828D02*
X39947366Y-167689400D01*
X39947366Y-167689400D02*
X40018795Y-167546542D01*
X40018795Y-167546542D02*
X40018795Y-167475114D01*
X40018795Y-167475114D02*
X39947366Y-167332257D01*
X39947366Y-167332257D02*
X39804509Y-167260828D01*
X39804509Y-167260828D02*
X39590224Y-167260828D01*
X39590224Y-167260828D02*
X39447366Y-167189400D01*
X39447366Y-167189400D02*
X39375938Y-167046542D01*
X39375938Y-167046542D02*
X39375938Y-166975114D01*
X39375938Y-166975114D02*
X39447366Y-166832257D01*
X39447366Y-166832257D02*
X39590224Y-166760828D01*
X39590224Y-166760828D02*
X39804509Y-166760828D01*
X39804509Y-166760828D02*
X39947366Y-166832257D01*
X40447367Y-166760828D02*
X41018795Y-166760828D01*
X40661652Y-166260828D02*
X40661652Y-167546542D01*
X40661652Y-167546542D02*
X40733081Y-167689400D01*
X40733081Y-167689400D02*
X40875938Y-167760828D01*
X40875938Y-167760828D02*
X41018795Y-167760828D01*
X42090224Y-167689400D02*
X41947367Y-167760828D01*
X41947367Y-167760828D02*
X41661653Y-167760828D01*
X41661653Y-167760828D02*
X41518795Y-167689400D01*
X41518795Y-167689400D02*
X41447367Y-167546542D01*
X41447367Y-167546542D02*
X41447367Y-166975114D01*
X41447367Y-166975114D02*
X41518795Y-166832257D01*
X41518795Y-166832257D02*
X41661653Y-166760828D01*
X41661653Y-166760828D02*
X41947367Y-166760828D01*
X41947367Y-166760828D02*
X42090224Y-166832257D01*
X42090224Y-166832257D02*
X42161653Y-166975114D01*
X42161653Y-166975114D02*
X42161653Y-167117971D01*
X42161653Y-167117971D02*
X41447367Y-167260828D01*
X44447366Y-166975114D02*
X43947366Y-166975114D01*
X43947366Y-167760828D02*
X43947366Y-166260828D01*
X43947366Y-166260828D02*
X44661652Y-166260828D01*
X45233080Y-167760828D02*
X45233080Y-166760828D01*
X45233080Y-167046542D02*
X45304509Y-166903685D01*
X45304509Y-166903685D02*
X45375938Y-166832257D01*
X45375938Y-166832257D02*
X45518795Y-166760828D01*
X45518795Y-166760828D02*
X45661652Y-166760828D01*
X46375937Y-167760828D02*
X46233080Y-167689400D01*
X46233080Y-167689400D02*
X46161651Y-167617971D01*
X46161651Y-167617971D02*
X46090223Y-167475114D01*
X46090223Y-167475114D02*
X46090223Y-167046542D01*
X46090223Y-167046542D02*
X46161651Y-166903685D01*
X46161651Y-166903685D02*
X46233080Y-166832257D01*
X46233080Y-166832257D02*
X46375937Y-166760828D01*
X46375937Y-166760828D02*
X46590223Y-166760828D01*
X46590223Y-166760828D02*
X46733080Y-166832257D01*
X46733080Y-166832257D02*
X46804509Y-166903685D01*
X46804509Y-166903685D02*
X46875937Y-167046542D01*
X46875937Y-167046542D02*
X46875937Y-167475114D01*
X46875937Y-167475114D02*
X46804509Y-167617971D01*
X46804509Y-167617971D02*
X46733080Y-167689400D01*
X46733080Y-167689400D02*
X46590223Y-167760828D01*
X46590223Y-167760828D02*
X46375937Y-167760828D01*
X47518794Y-166760828D02*
X47518794Y-167760828D01*
X47518794Y-166903685D02*
X47590223Y-166832257D01*
X47590223Y-166832257D02*
X47733080Y-166760828D01*
X47733080Y-166760828D02*
X47947366Y-166760828D01*
X47947366Y-166760828D02*
X48090223Y-166832257D01*
X48090223Y-166832257D02*
X48161652Y-166975114D01*
X48161652Y-166975114D02*
X48161652Y-167760828D01*
X48661652Y-166760828D02*
X49233080Y-166760828D01*
X48875937Y-166260828D02*
X48875937Y-167546542D01*
X48875937Y-167546542D02*
X48947366Y-167689400D01*
X48947366Y-167689400D02*
X49090223Y-167760828D01*
X49090223Y-167760828D02*
X49233080Y-167760828D01*
X51304509Y-168332257D02*
X51233080Y-168260828D01*
X51233080Y-168260828D02*
X51090223Y-168046542D01*
X51090223Y-168046542D02*
X51018795Y-167903685D01*
X51018795Y-167903685D02*
X50947366Y-167689400D01*
X50947366Y-167689400D02*
X50875937Y-167332257D01*
X50875937Y-167332257D02*
X50875937Y-167046542D01*
X50875937Y-167046542D02*
X50947366Y-166689400D01*
X50947366Y-166689400D02*
X51018795Y-166475114D01*
X51018795Y-166475114D02*
X51090223Y-166332257D01*
X51090223Y-166332257D02*
X51233080Y-166117971D01*
X51233080Y-166117971D02*
X51304509Y-166046542D01*
X52375937Y-166975114D02*
X51875937Y-166975114D01*
X51875937Y-167760828D02*
X51875937Y-166260828D01*
X51875937Y-166260828D02*
X52590223Y-166260828D01*
X53161651Y-167617971D02*
X53233080Y-167689400D01*
X53233080Y-167689400D02*
X53161651Y-167760828D01*
X53161651Y-167760828D02*
X53090223Y-167689400D01*
X53090223Y-167689400D02*
X53161651Y-167617971D01*
X53161651Y-167617971D02*
X53161651Y-167760828D01*
X53875937Y-167760828D02*
X53875937Y-166260828D01*
X53875937Y-166260828D02*
X54447366Y-166260828D01*
X54447366Y-166260828D02*
X54590223Y-166332257D01*
X54590223Y-166332257D02*
X54661652Y-166403685D01*
X54661652Y-166403685D02*
X54733080Y-166546542D01*
X54733080Y-166546542D02*
X54733080Y-166760828D01*
X54733080Y-166760828D02*
X54661652Y-166903685D01*
X54661652Y-166903685D02*
X54590223Y-166975114D01*
X54590223Y-166975114D02*
X54447366Y-167046542D01*
X54447366Y-167046542D02*
X53875937Y-167046542D01*
X56018795Y-167760828D02*
X56018795Y-166975114D01*
X56018795Y-166975114D02*
X55947366Y-166832257D01*
X55947366Y-166832257D02*
X55804509Y-166760828D01*
X55804509Y-166760828D02*
X55518795Y-166760828D01*
X55518795Y-166760828D02*
X55375937Y-166832257D01*
X56018795Y-167689400D02*
X55875937Y-167760828D01*
X55875937Y-167760828D02*
X55518795Y-167760828D01*
X55518795Y-167760828D02*
X55375937Y-167689400D01*
X55375937Y-167689400D02*
X55304509Y-167546542D01*
X55304509Y-167546542D02*
X55304509Y-167403685D01*
X55304509Y-167403685D02*
X55375937Y-167260828D01*
X55375937Y-167260828D02*
X55518795Y-167189400D01*
X55518795Y-167189400D02*
X55875937Y-167189400D01*
X55875937Y-167189400D02*
X56018795Y-167117971D01*
X56661652Y-167689400D02*
X56804509Y-167760828D01*
X56804509Y-167760828D02*
X57090223Y-167760828D01*
X57090223Y-167760828D02*
X57233080Y-167689400D01*
X57233080Y-167689400D02*
X57304509Y-167546542D01*
X57304509Y-167546542D02*
X57304509Y-167475114D01*
X57304509Y-167475114D02*
X57233080Y-167332257D01*
X57233080Y-167332257D02*
X57090223Y-167260828D01*
X57090223Y-167260828D02*
X56875938Y-167260828D01*
X56875938Y-167260828D02*
X56733080Y-167189400D01*
X56733080Y-167189400D02*
X56661652Y-167046542D01*
X56661652Y-167046542D02*
X56661652Y-166975114D01*
X56661652Y-166975114D02*
X56733080Y-166832257D01*
X56733080Y-166832257D02*
X56875938Y-166760828D01*
X56875938Y-166760828D02*
X57090223Y-166760828D01*
X57090223Y-166760828D02*
X57233080Y-166832257D01*
X57733081Y-166760828D02*
X58304509Y-166760828D01*
X57947366Y-166260828D02*
X57947366Y-167546542D01*
X57947366Y-167546542D02*
X58018795Y-167689400D01*
X58018795Y-167689400D02*
X58161652Y-167760828D01*
X58161652Y-167760828D02*
X58304509Y-167760828D01*
X59375938Y-167689400D02*
X59233081Y-167760828D01*
X59233081Y-167760828D02*
X58947367Y-167760828D01*
X58947367Y-167760828D02*
X58804509Y-167689400D01*
X58804509Y-167689400D02*
X58733081Y-167546542D01*
X58733081Y-167546542D02*
X58733081Y-166975114D01*
X58733081Y-166975114D02*
X58804509Y-166832257D01*
X58804509Y-166832257D02*
X58947367Y-166760828D01*
X58947367Y-166760828D02*
X59233081Y-166760828D01*
X59233081Y-166760828D02*
X59375938Y-166832257D01*
X59375938Y-166832257D02*
X59447367Y-166975114D01*
X59447367Y-166975114D02*
X59447367Y-167117971D01*
X59447367Y-167117971D02*
X58733081Y-167260828D01*
X59947366Y-168332257D02*
X60018795Y-168260828D01*
X60018795Y-168260828D02*
X60161652Y-168046542D01*
X60161652Y-168046542D02*
X60233081Y-167903685D01*
X60233081Y-167903685D02*
X60304509Y-167689400D01*
X60304509Y-167689400D02*
X60375938Y-167332257D01*
X60375938Y-167332257D02*
X60375938Y-167046542D01*
X60375938Y-167046542D02*
X60304509Y-166689400D01*
X60304509Y-166689400D02*
X60233081Y-166475114D01*
X60233081Y-166475114D02*
X60161652Y-166332257D01*
X60161652Y-166332257D02*
X60018795Y-166117971D01*
X60018795Y-166117971D02*
X59947366Y-166046542D01*
D11*
X64500000Y-117475000D03*
X64500000Y-119300000D03*
D12*
X111700000Y-57250000D03*
X110750000Y-57250000D03*
X109800000Y-57250000D03*
X109800000Y-59525000D03*
X110750000Y-59525000D03*
X111700000Y-59525000D03*
D13*
X91528873Y-34501038D03*
X92728873Y-34501038D03*
X93928873Y-34501038D03*
D14*
X89258873Y-34366038D03*
D13*
X91528873Y-33301038D03*
X92728873Y-33301038D03*
X93928873Y-33301038D03*
D15*
X95103873Y-33301038D03*
D14*
X89258873Y-32236038D03*
D13*
X91528873Y-32101038D03*
X92728873Y-32101038D03*
X93928873Y-32101038D03*
D16*
X66250000Y-59250000D03*
X66250000Y-57525000D03*
D17*
X65300000Y-42750000D03*
X65300000Y-44750000D03*
D18*
X63212500Y-115706666D03*
X61387500Y-115706666D03*
D16*
X66250000Y-119250000D03*
X66250000Y-117525000D03*
D19*
X63162500Y-82120000D03*
X61437500Y-82120000D03*
D20*
X83887500Y-103250000D03*
X85612500Y-103250000D03*
D11*
X64500000Y-87475000D03*
X64500000Y-89300000D03*
D21*
X63037500Y-104250000D03*
X60962500Y-104250000D03*
D22*
X58750000Y-56787500D03*
X58750000Y-59287500D03*
D23*
X86250000Y-61750000D03*
X88250000Y-61750000D03*
D19*
X121612500Y-51000000D03*
X119887500Y-51000000D03*
D20*
X83887500Y-43250000D03*
X85612500Y-43250000D03*
D24*
X57000000Y-84750000D03*
X59500000Y-84750000D03*
D11*
X44899766Y-31444125D03*
X44899766Y-33269125D03*
D25*
X119837500Y-52750000D03*
X121662500Y-52750000D03*
D26*
X41050000Y-40350000D03*
X41050000Y-41250000D03*
X39450000Y-41250000D03*
X39450000Y-40350000D03*
D27*
X85825000Y-106975000D03*
X85825000Y-106325000D03*
X85825000Y-105675000D03*
X85825000Y-105025000D03*
X83225000Y-105025000D03*
X83225000Y-105675000D03*
X83225000Y-106325000D03*
X83225000Y-106975000D03*
D16*
X69000000Y-39500000D03*
X69000000Y-37775000D03*
D18*
X62662500Y-87500000D03*
X60837500Y-87500000D03*
D28*
X63080000Y-76590000D03*
X63080000Y-77860000D03*
X63080000Y-79130000D03*
X63080000Y-80400000D03*
D29*
X65250000Y-77350000D03*
X65250000Y-78500000D03*
X65250000Y-79650000D03*
X66100000Y-77350000D03*
X66100000Y-78500000D03*
X66100000Y-79650000D03*
X66950000Y-77350000D03*
X66950000Y-78500000D03*
X66950000Y-79650000D03*
D30*
X68800000Y-76620000D03*
X68800000Y-77900000D03*
X68800000Y-79100000D03*
X68800000Y-80380000D03*
D18*
X59512500Y-52750000D03*
X57687500Y-52750000D03*
X63212500Y-85706666D03*
X61387500Y-85706666D03*
D17*
X65300000Y-102750000D03*
X65300000Y-104750000D03*
D19*
X63162500Y-112120000D03*
X61437500Y-112120000D03*
D31*
X72160000Y-59330000D03*
X70890000Y-59330000D03*
X69620000Y-59330000D03*
X68350000Y-59330000D03*
D30*
X71400000Y-61500000D03*
X70250000Y-61500000D03*
X69100000Y-61500000D03*
X71400000Y-62350000D03*
X70250000Y-62350000D03*
X69100000Y-62350000D03*
X71400000Y-63200000D03*
X70250000Y-63200000D03*
X69100000Y-63200000D03*
D29*
X72130000Y-65050000D03*
X70850000Y-65050000D03*
X69650000Y-65050000D03*
X68370000Y-65050000D03*
D32*
X62125000Y-101250000D03*
X59000000Y-101250000D03*
D18*
X65520620Y-36000000D03*
X63695620Y-36000000D03*
D32*
X62125000Y-128500000D03*
X59000000Y-128500000D03*
D33*
X114050000Y-62250000D03*
X118450000Y-62250000D03*
D34*
X49250000Y-139750000D03*
D32*
X62125000Y-71250000D03*
X59000000Y-71250000D03*
D18*
X59512500Y-112750000D03*
X57687500Y-112750000D03*
D16*
X113472500Y-54887500D03*
X113472500Y-53162500D03*
D19*
X63162500Y-52120000D03*
X61437500Y-52120000D03*
D35*
X65500000Y-39550000D03*
X65500000Y-37725000D03*
D32*
X62125000Y-65750000D03*
X59000000Y-65750000D03*
D11*
X71000000Y-37725000D03*
X71000000Y-39550000D03*
D36*
X107750000Y-55250000D03*
X107750000Y-56975000D03*
D16*
X51750000Y-35862500D03*
X51750000Y-34137500D03*
D37*
X51450000Y-29055000D03*
X50650000Y-29055000D03*
D38*
X49500000Y-29055000D03*
X48500000Y-29055000D03*
X48000000Y-29055000D03*
X47000000Y-29055000D03*
D37*
X45850000Y-29055000D03*
X45050000Y-29055000D03*
X45050000Y-29055000D03*
X45850000Y-29055000D03*
D38*
X46500000Y-29055000D03*
X47500000Y-29055000D03*
X49000000Y-29055000D03*
X50000000Y-29055000D03*
D37*
X50650000Y-29055000D03*
X51450000Y-29055000D03*
D39*
X52570000Y-28430000D03*
D40*
X52570000Y-24250000D03*
D39*
X43930000Y-28430000D03*
D40*
X43930000Y-24250000D03*
D32*
X62125000Y-95750000D03*
X59000000Y-95750000D03*
D21*
X63037500Y-74250000D03*
X60962500Y-74250000D03*
D18*
X62662500Y-89307500D03*
X60837500Y-89307500D03*
D28*
X63080000Y-106590000D03*
X63080000Y-107860000D03*
X63080000Y-109130000D03*
X63080000Y-110400000D03*
D29*
X65250000Y-107350000D03*
X65250000Y-108500000D03*
X65250000Y-109650000D03*
X66100000Y-107350000D03*
X66100000Y-108500000D03*
X66100000Y-109650000D03*
X66950000Y-107350000D03*
X66950000Y-108500000D03*
X66950000Y-109650000D03*
D30*
X68800000Y-106620000D03*
X68800000Y-107900000D03*
X68800000Y-109100000D03*
X68800000Y-110380000D03*
D16*
X66250000Y-89250000D03*
X66250000Y-87525000D03*
D25*
X61387500Y-83913333D03*
X63212500Y-83913333D03*
D32*
X62125000Y-68500000D03*
X59000000Y-68500000D03*
D17*
X40500000Y-67500000D03*
X40500000Y-69500000D03*
D41*
X104750000Y-55450000D03*
X104750000Y-61550000D03*
D42*
X59930000Y-28812500D03*
X59930000Y-25687500D03*
D43*
X84000000Y-91537500D03*
X84000000Y-89462500D03*
D11*
X46750000Y-42087500D03*
X46750000Y-43912500D03*
D18*
X63212500Y-55706666D03*
X61387500Y-55706666D03*
D36*
X53500000Y-38250000D03*
X53500000Y-39975000D03*
D18*
X62662500Y-59307500D03*
X60837500Y-59307500D03*
D27*
X85825000Y-76975000D03*
X85825000Y-76325000D03*
X85825000Y-75675000D03*
X85825000Y-75025000D03*
X83225000Y-75025000D03*
X83225000Y-75675000D03*
X83225000Y-76325000D03*
X83225000Y-76975000D03*
D28*
X63080000Y-46590000D03*
X63080000Y-47860000D03*
X63080000Y-49130000D03*
X63080000Y-50400000D03*
D29*
X65250000Y-47350000D03*
X65250000Y-48500000D03*
X65250000Y-49650000D03*
X66100000Y-47350000D03*
X66100000Y-48500000D03*
X66100000Y-49650000D03*
X66950000Y-47350000D03*
X66950000Y-48500000D03*
X66950000Y-49650000D03*
D30*
X68800000Y-46620000D03*
X68800000Y-47900000D03*
X68800000Y-49100000D03*
X68800000Y-50380000D03*
D44*
X81450000Y-80250000D03*
X87550000Y-80250000D03*
D18*
X62662500Y-57500000D03*
X60837500Y-57500000D03*
D34*
X111250000Y-42460000D03*
D17*
X65300000Y-72750000D03*
X65300000Y-74750000D03*
D23*
X86250000Y-121750000D03*
X88250000Y-121750000D03*
D11*
X48500000Y-42087500D03*
X48500000Y-43912500D03*
D31*
X72160000Y-119330000D03*
X70890000Y-119330000D03*
X69620000Y-119330000D03*
X68350000Y-119330000D03*
D30*
X71400000Y-121500000D03*
X70250000Y-121500000D03*
X69100000Y-121500000D03*
X71400000Y-122350000D03*
X70250000Y-122350000D03*
X69100000Y-122350000D03*
X71400000Y-123200000D03*
X70250000Y-123200000D03*
X69100000Y-123200000D03*
D29*
X72130000Y-125050000D03*
X70850000Y-125050000D03*
X69650000Y-125050000D03*
X68370000Y-125050000D03*
D45*
X106000000Y-131450000D03*
X106000000Y-134550000D03*
D12*
X48880000Y-31612500D03*
X46980000Y-31612500D03*
X47930000Y-33887500D03*
X111700000Y-52887500D03*
X110750000Y-52887500D03*
X109800000Y-52887500D03*
X109800000Y-55162500D03*
X110750000Y-55162500D03*
X111700000Y-55162500D03*
D44*
X81450000Y-54500000D03*
X87550000Y-54500000D03*
D20*
X83887500Y-73250000D03*
X85612500Y-73250000D03*
D46*
X43200000Y-67262500D03*
X43200000Y-70237500D03*
D47*
X67420000Y-30850000D03*
X64220000Y-30850000D03*
D48*
X66605000Y-31250000D03*
X65705000Y-31250000D03*
D47*
X67420000Y-31500000D03*
X64220000Y-31500000D03*
X67420000Y-32150000D03*
X64220000Y-32150000D03*
D48*
X66605000Y-32400000D03*
X65705000Y-32400000D03*
D47*
X67420000Y-32800000D03*
X64220000Y-32800000D03*
D49*
X38812500Y-33000000D03*
X41787500Y-33000000D03*
D44*
X81450000Y-114500000D03*
X87550000Y-114500000D03*
D25*
X61387500Y-53913333D03*
X63212500Y-53913333D03*
D22*
X58750000Y-116787500D03*
X58750000Y-119287500D03*
D18*
X62662500Y-119307500D03*
X60837500Y-119307500D03*
D50*
X48680000Y-37150000D03*
X47330000Y-37150000D03*
X48680000Y-38500000D03*
X47330000Y-38500000D03*
D51*
X49255000Y-35862500D03*
X48755000Y-35862500D03*
X48255000Y-35862500D03*
X47755000Y-35862500D03*
X47255000Y-35862500D03*
X46755000Y-35862500D03*
D52*
X46042500Y-36575000D03*
X46042500Y-37075000D03*
X46042500Y-37575000D03*
X46042500Y-38075000D03*
X46042500Y-38575000D03*
X46042500Y-39075000D03*
D51*
X46755000Y-39787500D03*
X47255000Y-39787500D03*
X47755000Y-39787500D03*
X48255000Y-39787500D03*
X48755000Y-39787500D03*
X49255000Y-39787500D03*
D52*
X49967500Y-39075000D03*
X49967500Y-38575000D03*
X49967500Y-38075000D03*
X49967500Y-37575000D03*
X49967500Y-37075000D03*
X49967500Y-36575000D03*
D27*
X85825000Y-46975000D03*
X85825000Y-46325000D03*
X85825000Y-45675000D03*
X85825000Y-45025000D03*
X83225000Y-45025000D03*
X83225000Y-45675000D03*
X83225000Y-46325000D03*
X83225000Y-46975000D03*
D32*
X62125000Y-131250000D03*
X59000000Y-131250000D03*
D35*
X55250000Y-40000000D03*
X55250000Y-38175000D03*
D11*
X67250000Y-37725000D03*
X67250000Y-39550000D03*
D31*
X72160000Y-89330000D03*
X70890000Y-89330000D03*
X69620000Y-89330000D03*
X68350000Y-89330000D03*
D30*
X71400000Y-91500000D03*
X70250000Y-91500000D03*
X69100000Y-91500000D03*
X71400000Y-92350000D03*
X70250000Y-92350000D03*
X69100000Y-92350000D03*
X71400000Y-93200000D03*
X70250000Y-93200000D03*
X69100000Y-93200000D03*
D29*
X72130000Y-95050000D03*
X70850000Y-95050000D03*
X69650000Y-95050000D03*
X68370000Y-95050000D03*
D44*
X81450000Y-84500000D03*
X87550000Y-84500000D03*
D32*
X62125000Y-98500000D03*
X59000000Y-98500000D03*
X62125000Y-125750000D03*
X59000000Y-125750000D03*
D21*
X63037500Y-44250000D03*
X60962500Y-44250000D03*
D16*
X115300000Y-54887500D03*
X115300000Y-53162500D03*
D36*
X51750000Y-38250000D03*
X51750000Y-39975000D03*
D43*
X84000000Y-121537500D03*
X84000000Y-119462500D03*
D16*
X115300000Y-59250000D03*
X115300000Y-57525000D03*
D25*
X61387500Y-113913333D03*
X63212500Y-113913333D03*
D24*
X57000000Y-114750000D03*
X59500000Y-114750000D03*
D22*
X58750000Y-86787500D03*
X58750000Y-89287500D03*
D24*
X57000000Y-54750000D03*
X59500000Y-54750000D03*
D44*
X81450000Y-50250000D03*
X87550000Y-50250000D03*
X81450000Y-110250000D03*
X87550000Y-110250000D03*
D18*
X62662500Y-117500000D03*
X60837500Y-117500000D03*
D43*
X84000000Y-61537500D03*
X84000000Y-59462500D03*
D18*
X59512500Y-82750000D03*
X57687500Y-82750000D03*
D11*
X64500000Y-57475000D03*
X64500000Y-59300000D03*
D23*
X86250000Y-91750000D03*
X88250000Y-91750000D03*
D11*
X45000000Y-42087500D03*
X45000000Y-43912500D03*
D16*
X113472500Y-59250000D03*
X113472500Y-57525000D03*
D53*
X56930000Y-28650000D03*
X56930000Y-25850000D03*
M02*
